<mxfile host="app.diagrams.net" agent="Mozilla/5.0 (Windows NT 10.0; Win64; x64; rv:133.0) Gecko/20100101 Firefox/133.0" version="25.0.3">
  <diagram name="Page-1" id="Axhso_tztstwOsXAmfFi">
    <mxGraphModel dx="1393" dy="866" grid="1" gridSize="10" guides="1" tooltips="1" connect="1" arrows="1" fold="1" page="1" pageScale="1" pageWidth="850" pageHeight="1100" math="0" shadow="0">
      <root>
        <mxCell id="0" />
        <mxCell id="1" parent="0" />
        <mxCell id="2rovBy-W9d4GmyHB49PC-379" value="" style="group" vertex="1" connectable="0" parent="1">
          <mxGeometry x="110" y="328.67" width="710" height="511.33" as="geometry" />
        </mxCell>
        <mxCell id="2rovBy-W9d4GmyHB49PC-380" value="" style="shape=table;startSize=0;container=1;collapsible=0;childLayout=tableLayout;fillColor=#fff9e6;strokeColor=#919191;" vertex="1" parent="2rovBy-W9d4GmyHB49PC-379">
          <mxGeometry x="-8" width="710" height="511.3299999999999" as="geometry" />
        </mxCell>
        <mxCell id="2rovBy-W9d4GmyHB49PC-381" value="" style="shape=tableRow;horizontal=0;startSize=0;swimlaneHead=0;swimlaneBody=0;strokeColor=inherit;top=0;left=0;bottom=0;right=0;collapsible=0;dropTarget=0;fillColor=none;points=[[0,0.5],[1,0.5]];portConstraint=eastwest;" vertex="1" parent="2rovBy-W9d4GmyHB49PC-380">
          <mxGeometry width="710" height="20" as="geometry" />
        </mxCell>
        <mxCell id="2rovBy-W9d4GmyHB49PC-382" value="&lt;div align=&quot;left&quot; style=&quot;margin-top: 0px; padding-right: 0px;&quot;&gt;USED AT:&lt;/div&gt;&lt;div align=&quot;left&quot; style=&quot;margin-top: 0px; padding-right: 0px;&quot;&gt;&lt;br&gt;&lt;/div&gt;&lt;div align=&quot;left&quot; style=&quot;margin-top: 0px; padding-right: 0px;&quot;&gt;&lt;br&gt;&lt;/div&gt;&lt;div align=&quot;left&quot; style=&quot;margin-top: 0px; padding-right: 0px;&quot;&gt;&lt;br&gt;&lt;/div&gt;&lt;div align=&quot;left&quot; style=&quot;margin-top: 0px; padding-right: 0px;&quot;&gt;&lt;br&gt;&lt;/div&gt;" style="shape=partialRectangle;html=1;whiteSpace=wrap;connectable=0;strokeColor=inherit;overflow=hidden;fillColor=none;top=0;left=0;bottom=0;right=0;pointerEvents=1;rowspan=4;colspan=1;align=left;" vertex="1" parent="2rovBy-W9d4GmyHB49PC-381">
          <mxGeometry width="90" height="80" as="geometry">
            <mxRectangle width="90" height="20" as="alternateBounds" />
          </mxGeometry>
        </mxCell>
        <mxCell id="2rovBy-W9d4GmyHB49PC-383" value="&lt;div align=&quot;left&quot;&gt;AUTHOR: Elvira&lt;span style=&quot;white-space: pre;&quot;&gt;&#x9;&lt;/span&gt;&lt;span style=&quot;white-space: pre;&quot;&gt;&#x9;&lt;/span&gt;&lt;span style=&quot;white-space: pre;&quot;&gt;&#x9;&lt;/span&gt;DATE: 16.12.2024&lt;br&gt;&lt;/div&gt;&lt;div align=&quot;left&quot;&gt;PROJECT: Practic7&lt;span style=&quot;white-space: pre;&quot;&gt;&#x9;&lt;/span&gt;&lt;span style=&quot;white-space: pre;&quot;&gt;&#x9;&lt;/span&gt;REV:&amp;nbsp;&amp;nbsp; 20.12.2024&lt;br&gt;&lt;/div&gt;&lt;div align=&quot;left&quot;&gt;&lt;br&gt;&lt;/div&gt;&lt;div align=&quot;left&quot;&gt;&lt;br&gt;&lt;/div&gt;&lt;div align=&quot;left&quot;&gt;NOTES: 1 2 3 4 5 6 7 8 9 10&lt;br&gt;&lt;/div&gt;" style="shape=partialRectangle;html=1;whiteSpace=wrap;connectable=0;strokeColor=inherit;overflow=hidden;fillColor=none;top=0;left=0;bottom=0;right=0;pointerEvents=1;rowspan=4;colspan=1;align=left;" vertex="1" parent="2rovBy-W9d4GmyHB49PC-381">
          <mxGeometry x="90" width="260" height="80" as="geometry">
            <mxRectangle width="260" height="20" as="alternateBounds" />
          </mxGeometry>
        </mxCell>
        <mxCell id="2rovBy-W9d4GmyHB49PC-384" value="" style="shape=partialRectangle;html=1;whiteSpace=wrap;connectable=0;strokeColor=inherit;overflow=hidden;fillColor=#333333;top=0;left=0;bottom=0;right=0;pointerEvents=1;" vertex="1" parent="2rovBy-W9d4GmyHB49PC-381">
          <mxGeometry x="350" width="30" height="20" as="geometry">
            <mxRectangle width="30" height="20" as="alternateBounds" />
          </mxGeometry>
        </mxCell>
        <mxCell id="2rovBy-W9d4GmyHB49PC-385" value="WORKING" style="shape=partialRectangle;html=1;whiteSpace=wrap;connectable=0;strokeColor=inherit;overflow=hidden;fillColor=none;top=0;left=0;bottom=0;right=0;pointerEvents=1;align=left;" vertex="1" parent="2rovBy-W9d4GmyHB49PC-381">
          <mxGeometry x="380" width="120" height="20" as="geometry">
            <mxRectangle width="120" height="20" as="alternateBounds" />
          </mxGeometry>
        </mxCell>
        <mxCell id="2rovBy-W9d4GmyHB49PC-386" value="&lt;div align=&quot;left&quot;&gt;READER&lt;span style=&quot;white-space: pre;&quot;&gt;&#x9;&lt;/span&gt;DATE&lt;/div&gt;" style="shape=partialRectangle;html=1;whiteSpace=wrap;connectable=0;strokeColor=inherit;overflow=hidden;fillColor=none;top=0;left=0;bottom=0;right=0;pointerEvents=1;align=left;" vertex="1" parent="2rovBy-W9d4GmyHB49PC-381">
          <mxGeometry x="500" width="120" height="20" as="geometry">
            <mxRectangle width="120" height="20" as="alternateBounds" />
          </mxGeometry>
        </mxCell>
        <mxCell id="2rovBy-W9d4GmyHB49PC-387" value="&lt;div align=&quot;left&quot;&gt;CONTENT:&lt;/div&gt;&lt;div align=&quot;left&quot;&gt;&lt;b&gt;&lt;font style=&quot;font-size: 18px;&quot;&gt;&lt;br&gt;&lt;/font&gt;&lt;/b&gt;&lt;/div&gt;&lt;div align=&quot;left&quot;&gt;&lt;b&gt;&lt;font style=&quot;font-size: 18px;&quot;&gt;&lt;span style=&quot;white-space: pre;&quot;&gt;&#x9;&lt;/span&gt;&lt;/font&gt;&lt;/b&gt;&lt;font style=&quot;font-size: 18px;&quot;&gt;TOP&lt;/font&gt;&lt;/div&gt;&lt;div align=&quot;left&quot;&gt;&lt;br&gt;&lt;/div&gt;&lt;div align=&quot;left&quot;&gt;&lt;br&gt;&lt;/div&gt;" style="shape=partialRectangle;html=1;whiteSpace=wrap;connectable=0;strokeColor=inherit;overflow=hidden;fillColor=none;top=0;left=0;bottom=0;right=0;pointerEvents=1;rowspan=4;colspan=1;align=left;" vertex="1" parent="2rovBy-W9d4GmyHB49PC-381">
          <mxGeometry x="620" width="90" height="80" as="geometry">
            <mxRectangle width="90" height="20" as="alternateBounds" />
          </mxGeometry>
        </mxCell>
        <mxCell id="2rovBy-W9d4GmyHB49PC-388" value="" style="shape=tableRow;horizontal=0;startSize=0;swimlaneHead=0;swimlaneBody=0;strokeColor=inherit;top=0;left=0;bottom=0;right=0;collapsible=0;dropTarget=0;fillColor=none;points=[[0,0.5],[1,0.5]];portConstraint=eastwest;" vertex="1" parent="2rovBy-W9d4GmyHB49PC-380">
          <mxGeometry y="20" width="710" height="20" as="geometry" />
        </mxCell>
        <mxCell id="2rovBy-W9d4GmyHB49PC-389" value="" style="shape=partialRectangle;html=1;whiteSpace=wrap;connectable=0;strokeColor=inherit;overflow=hidden;fillColor=none;top=0;left=0;bottom=0;right=0;pointerEvents=1;" vertex="1" visible="0" parent="2rovBy-W9d4GmyHB49PC-388">
          <mxGeometry width="90" height="20" as="geometry">
            <mxRectangle width="90" height="20" as="alternateBounds" />
          </mxGeometry>
        </mxCell>
        <mxCell id="2rovBy-W9d4GmyHB49PC-390" value="" style="shape=partialRectangle;html=1;whiteSpace=wrap;connectable=0;strokeColor=inherit;overflow=hidden;fillColor=none;top=0;left=0;bottom=0;right=0;pointerEvents=1;" vertex="1" visible="0" parent="2rovBy-W9d4GmyHB49PC-388">
          <mxGeometry x="90" width="260" height="20" as="geometry">
            <mxRectangle width="260" height="20" as="alternateBounds" />
          </mxGeometry>
        </mxCell>
        <mxCell id="2rovBy-W9d4GmyHB49PC-391" value="" style="shape=partialRectangle;html=1;whiteSpace=wrap;connectable=0;strokeColor=inherit;overflow=hidden;fillColor=none;top=0;left=0;bottom=0;right=0;pointerEvents=1;" vertex="1" parent="2rovBy-W9d4GmyHB49PC-388">
          <mxGeometry x="350" width="30" height="20" as="geometry">
            <mxRectangle width="30" height="20" as="alternateBounds" />
          </mxGeometry>
        </mxCell>
        <mxCell id="2rovBy-W9d4GmyHB49PC-392" value="DRAFT" style="shape=partialRectangle;html=1;whiteSpace=wrap;connectable=0;strokeColor=inherit;overflow=hidden;fillColor=none;top=0;left=0;bottom=0;right=0;pointerEvents=1;align=left;" vertex="1" parent="2rovBy-W9d4GmyHB49PC-388">
          <mxGeometry x="380" width="120" height="20" as="geometry">
            <mxRectangle width="120" height="20" as="alternateBounds" />
          </mxGeometry>
        </mxCell>
        <mxCell id="2rovBy-W9d4GmyHB49PC-393" value="" style="shape=partialRectangle;html=1;whiteSpace=wrap;connectable=0;strokeColor=inherit;overflow=hidden;fillColor=none;top=0;left=0;bottom=0;right=0;pointerEvents=1;" vertex="1" parent="2rovBy-W9d4GmyHB49PC-388">
          <mxGeometry x="500" width="120" height="20" as="geometry">
            <mxRectangle width="120" height="20" as="alternateBounds" />
          </mxGeometry>
        </mxCell>
        <mxCell id="2rovBy-W9d4GmyHB49PC-394" value="" style="shape=partialRectangle;html=1;whiteSpace=wrap;connectable=0;strokeColor=inherit;overflow=hidden;fillColor=none;top=0;left=0;bottom=0;right=0;pointerEvents=1;" vertex="1" visible="0" parent="2rovBy-W9d4GmyHB49PC-388">
          <mxGeometry x="620" width="90" height="20" as="geometry">
            <mxRectangle width="90" height="20" as="alternateBounds" />
          </mxGeometry>
        </mxCell>
        <mxCell id="2rovBy-W9d4GmyHB49PC-395" value="" style="shape=tableRow;horizontal=0;startSize=0;swimlaneHead=0;swimlaneBody=0;strokeColor=inherit;top=0;left=0;bottom=0;right=0;collapsible=0;dropTarget=0;fillColor=none;points=[[0,0.5],[1,0.5]];portConstraint=eastwest;" vertex="1" parent="2rovBy-W9d4GmyHB49PC-380">
          <mxGeometry y="40" width="710" height="20" as="geometry" />
        </mxCell>
        <mxCell id="2rovBy-W9d4GmyHB49PC-396" value="" style="shape=partialRectangle;html=1;whiteSpace=wrap;connectable=0;strokeColor=inherit;overflow=hidden;fillColor=none;top=0;left=0;bottom=0;right=0;pointerEvents=1;" vertex="1" visible="0" parent="2rovBy-W9d4GmyHB49PC-395">
          <mxGeometry width="90" height="20" as="geometry">
            <mxRectangle width="90" height="20" as="alternateBounds" />
          </mxGeometry>
        </mxCell>
        <mxCell id="2rovBy-W9d4GmyHB49PC-397" value="" style="shape=partialRectangle;html=1;whiteSpace=wrap;connectable=0;strokeColor=inherit;overflow=hidden;fillColor=none;top=0;left=0;bottom=0;right=0;pointerEvents=1;" vertex="1" visible="0" parent="2rovBy-W9d4GmyHB49PC-395">
          <mxGeometry x="90" width="260" height="20" as="geometry">
            <mxRectangle width="260" height="20" as="alternateBounds" />
          </mxGeometry>
        </mxCell>
        <mxCell id="2rovBy-W9d4GmyHB49PC-398" value="" style="shape=partialRectangle;html=1;whiteSpace=wrap;connectable=0;strokeColor=inherit;overflow=hidden;fillColor=none;top=0;left=0;bottom=0;right=0;pointerEvents=1;" vertex="1" parent="2rovBy-W9d4GmyHB49PC-395">
          <mxGeometry x="350" width="30" height="20" as="geometry">
            <mxRectangle width="30" height="20" as="alternateBounds" />
          </mxGeometry>
        </mxCell>
        <mxCell id="2rovBy-W9d4GmyHB49PC-399" value="RECOMMENDED" style="shape=partialRectangle;html=1;whiteSpace=wrap;connectable=0;strokeColor=inherit;overflow=hidden;fillColor=none;top=0;left=0;bottom=0;right=0;pointerEvents=1;align=left;" vertex="1" parent="2rovBy-W9d4GmyHB49PC-395">
          <mxGeometry x="380" width="120" height="20" as="geometry">
            <mxRectangle width="120" height="20" as="alternateBounds" />
          </mxGeometry>
        </mxCell>
        <mxCell id="2rovBy-W9d4GmyHB49PC-400" value="" style="shape=partialRectangle;html=1;whiteSpace=wrap;connectable=0;strokeColor=inherit;overflow=hidden;fillColor=none;top=0;left=0;bottom=0;right=0;pointerEvents=1;" vertex="1" parent="2rovBy-W9d4GmyHB49PC-395">
          <mxGeometry x="500" width="120" height="20" as="geometry">
            <mxRectangle width="120" height="20" as="alternateBounds" />
          </mxGeometry>
        </mxCell>
        <mxCell id="2rovBy-W9d4GmyHB49PC-401" value="" style="shape=partialRectangle;html=1;whiteSpace=wrap;connectable=0;strokeColor=inherit;overflow=hidden;fillColor=none;top=0;left=0;bottom=0;right=0;pointerEvents=1;" vertex="1" visible="0" parent="2rovBy-W9d4GmyHB49PC-395">
          <mxGeometry x="620" width="90" height="20" as="geometry">
            <mxRectangle width="90" height="20" as="alternateBounds" />
          </mxGeometry>
        </mxCell>
        <mxCell id="2rovBy-W9d4GmyHB49PC-402" value="" style="shape=tableRow;horizontal=0;startSize=0;swimlaneHead=0;swimlaneBody=0;strokeColor=inherit;top=0;left=0;bottom=0;right=0;collapsible=0;dropTarget=0;fillColor=none;points=[[0,0.5],[1,0.5]];portConstraint=eastwest;" vertex="1" parent="2rovBy-W9d4GmyHB49PC-380">
          <mxGeometry y="60" width="710" height="20" as="geometry" />
        </mxCell>
        <mxCell id="2rovBy-W9d4GmyHB49PC-403" value="" style="shape=partialRectangle;html=1;whiteSpace=wrap;connectable=0;strokeColor=inherit;overflow=hidden;fillColor=none;top=0;left=0;bottom=0;right=0;pointerEvents=1;" vertex="1" visible="0" parent="2rovBy-W9d4GmyHB49PC-402">
          <mxGeometry width="90" height="20" as="geometry">
            <mxRectangle width="90" height="20" as="alternateBounds" />
          </mxGeometry>
        </mxCell>
        <mxCell id="2rovBy-W9d4GmyHB49PC-404" value="" style="shape=partialRectangle;html=1;whiteSpace=wrap;connectable=0;strokeColor=inherit;overflow=hidden;fillColor=none;top=0;left=0;bottom=0;right=0;pointerEvents=1;" vertex="1" visible="0" parent="2rovBy-W9d4GmyHB49PC-402">
          <mxGeometry x="90" width="260" height="20" as="geometry">
            <mxRectangle width="260" height="20" as="alternateBounds" />
          </mxGeometry>
        </mxCell>
        <mxCell id="2rovBy-W9d4GmyHB49PC-405" value="" style="shape=partialRectangle;html=1;whiteSpace=wrap;connectable=0;strokeColor=inherit;overflow=hidden;fillColor=none;top=0;left=0;bottom=0;right=0;pointerEvents=1;" vertex="1" parent="2rovBy-W9d4GmyHB49PC-402">
          <mxGeometry x="350" width="30" height="20" as="geometry">
            <mxRectangle width="30" height="20" as="alternateBounds" />
          </mxGeometry>
        </mxCell>
        <mxCell id="2rovBy-W9d4GmyHB49PC-406" value="&lt;div align=&quot;left&quot;&gt;PUBLICATION&lt;/div&gt;" style="shape=partialRectangle;html=1;whiteSpace=wrap;connectable=0;strokeColor=inherit;overflow=hidden;fillColor=none;top=0;left=0;bottom=0;right=0;pointerEvents=1;align=left;" vertex="1" parent="2rovBy-W9d4GmyHB49PC-402">
          <mxGeometry x="380" width="120" height="20" as="geometry">
            <mxRectangle width="120" height="20" as="alternateBounds" />
          </mxGeometry>
        </mxCell>
        <mxCell id="2rovBy-W9d4GmyHB49PC-407" value="" style="shape=partialRectangle;html=1;whiteSpace=wrap;connectable=0;strokeColor=inherit;overflow=hidden;fillColor=none;top=0;left=0;bottom=0;right=0;pointerEvents=1;" vertex="1" parent="2rovBy-W9d4GmyHB49PC-402">
          <mxGeometry x="500" width="120" height="20" as="geometry">
            <mxRectangle width="120" height="20" as="alternateBounds" />
          </mxGeometry>
        </mxCell>
        <mxCell id="2rovBy-W9d4GmyHB49PC-408" value="" style="shape=partialRectangle;html=1;whiteSpace=wrap;connectable=0;strokeColor=inherit;overflow=hidden;fillColor=none;top=0;left=0;bottom=0;right=0;pointerEvents=1;" vertex="1" visible="0" parent="2rovBy-W9d4GmyHB49PC-402">
          <mxGeometry x="620" width="90" height="20" as="geometry">
            <mxRectangle width="90" height="20" as="alternateBounds" />
          </mxGeometry>
        </mxCell>
        <mxCell id="2rovBy-W9d4GmyHB49PC-409" value="" style="shape=tableRow;horizontal=0;startSize=0;swimlaneHead=0;swimlaneBody=0;strokeColor=inherit;top=0;left=0;bottom=0;right=0;collapsible=0;dropTarget=0;fillColor=none;points=[[0,0.5],[1,0.5]];portConstraint=eastwest;" vertex="1" parent="2rovBy-W9d4GmyHB49PC-380">
          <mxGeometry y="80" width="710" height="381" as="geometry" />
        </mxCell>
        <mxCell id="2rovBy-W9d4GmyHB49PC-410" value="" style="shape=partialRectangle;html=1;whiteSpace=wrap;connectable=0;strokeColor=inherit;overflow=hidden;fillColor=none;top=0;left=0;bottom=0;right=0;pointerEvents=1;rowspan=1;colspan=6;" vertex="1" parent="2rovBy-W9d4GmyHB49PC-409">
          <mxGeometry width="710" height="381" as="geometry">
            <mxRectangle width="90" height="381" as="alternateBounds" />
          </mxGeometry>
        </mxCell>
        <mxCell id="2rovBy-W9d4GmyHB49PC-411" value="" style="shape=partialRectangle;html=1;whiteSpace=wrap;connectable=0;strokeColor=inherit;overflow=hidden;fillColor=none;top=0;left=0;bottom=0;right=0;pointerEvents=1;" vertex="1" visible="0" parent="2rovBy-W9d4GmyHB49PC-409">
          <mxGeometry x="90" width="260" height="381" as="geometry">
            <mxRectangle width="260" height="381" as="alternateBounds" />
          </mxGeometry>
        </mxCell>
        <mxCell id="2rovBy-W9d4GmyHB49PC-412" value="" style="shape=partialRectangle;html=1;whiteSpace=wrap;connectable=0;strokeColor=inherit;overflow=hidden;fillColor=none;top=0;left=0;bottom=0;right=0;pointerEvents=1;" vertex="1" visible="0" parent="2rovBy-W9d4GmyHB49PC-409">
          <mxGeometry x="350" width="30" height="381" as="geometry">
            <mxRectangle width="30" height="381" as="alternateBounds" />
          </mxGeometry>
        </mxCell>
        <mxCell id="2rovBy-W9d4GmyHB49PC-413" value="" style="shape=partialRectangle;html=1;whiteSpace=wrap;connectable=0;strokeColor=inherit;overflow=hidden;fillColor=none;top=0;left=0;bottom=0;right=0;pointerEvents=1;" vertex="1" visible="0" parent="2rovBy-W9d4GmyHB49PC-409">
          <mxGeometry x="380" width="120" height="381" as="geometry">
            <mxRectangle width="120" height="381" as="alternateBounds" />
          </mxGeometry>
        </mxCell>
        <mxCell id="2rovBy-W9d4GmyHB49PC-414" value="" style="shape=partialRectangle;html=1;whiteSpace=wrap;connectable=0;strokeColor=inherit;overflow=hidden;fillColor=none;top=0;left=0;bottom=0;right=0;pointerEvents=1;" vertex="1" visible="0" parent="2rovBy-W9d4GmyHB49PC-409">
          <mxGeometry x="500" width="120" height="381" as="geometry">
            <mxRectangle width="120" height="381" as="alternateBounds" />
          </mxGeometry>
        </mxCell>
        <mxCell id="2rovBy-W9d4GmyHB49PC-415" value="" style="shape=partialRectangle;html=1;whiteSpace=wrap;connectable=0;strokeColor=inherit;overflow=hidden;fillColor=none;top=0;left=0;bottom=0;right=0;pointerEvents=1;" vertex="1" visible="0" parent="2rovBy-W9d4GmyHB49PC-409">
          <mxGeometry x="620" width="90" height="381" as="geometry">
            <mxRectangle width="90" height="381" as="alternateBounds" />
          </mxGeometry>
        </mxCell>
        <mxCell id="2rovBy-W9d4GmyHB49PC-416" value="" style="shape=tableRow;horizontal=0;startSize=0;swimlaneHead=0;swimlaneBody=0;strokeColor=inherit;top=0;left=0;bottom=0;right=0;collapsible=0;dropTarget=0;fillColor=none;points=[[0,0.5],[1,0.5]];portConstraint=eastwest;" vertex="1" parent="2rovBy-W9d4GmyHB49PC-380">
          <mxGeometry y="461" width="710" height="50" as="geometry" />
        </mxCell>
        <mxCell id="2rovBy-W9d4GmyHB49PC-417" value="&lt;div align=&quot;left&quot;&gt;NODE:&lt;/div&gt;&lt;div align=&quot;left&quot;&gt;&lt;span style=&quot;white-space: pre;&quot;&gt;&#x9;&lt;/span&gt;&lt;span style=&quot;white-space: pre;&quot;&gt;&#x9;&lt;/span&gt;&lt;font style=&quot;font-size: 17px;&quot;&gt;A-0&lt;/font&gt;&lt;br&gt;&lt;/div&gt;" style="shape=partialRectangle;html=1;whiteSpace=wrap;connectable=0;strokeColor=inherit;overflow=hidden;fillColor=none;top=0;left=0;bottom=0;right=0;pointerEvents=1;align=left;" vertex="1" parent="2rovBy-W9d4GmyHB49PC-416">
          <mxGeometry width="90" height="50" as="geometry">
            <mxRectangle width="90" height="50" as="alternateBounds" />
          </mxGeometry>
        </mxCell>
        <mxCell id="2rovBy-W9d4GmyHB49PC-418" value="&lt;div&gt;TITLE:&lt;/div&gt;&lt;div&gt;&lt;span style=&quot;white-space: pre;&quot;&gt;&#x9;&lt;/span&gt;&lt;span style=&quot;white-space: pre;&quot;&gt;&#x9;&lt;/span&gt;&lt;font style=&quot;font-size: 18px;&quot;&gt;&lt;span style=&quot;line-height: 107%; font-family: &amp;quot;Calibri&amp;quot;, sans-serif;&quot;&gt;&lt;span style=&quot;white-space: pre;&quot;&gt;&#x9;&lt;/span&gt;&lt;span style=&quot;white-space: pre;&quot;&gt;&#x9;&lt;/span&gt;&lt;span style=&quot;white-space: pre;&quot;&gt;&#x9;&lt;/span&gt;&lt;span style=&quot;white-space: pre;&quot;&gt;&#x9;&lt;/span&gt;Інвентаризація&lt;/span&gt;&lt;/font&gt;&lt;/div&gt;" style="shape=partialRectangle;html=1;whiteSpace=wrap;connectable=0;strokeColor=inherit;overflow=hidden;fillColor=none;top=0;left=0;bottom=0;right=0;pointerEvents=1;rowspan=1;colspan=3;align=left;" vertex="1" parent="2rovBy-W9d4GmyHB49PC-416">
          <mxGeometry x="90" width="410" height="50" as="geometry">
            <mxRectangle width="260" height="50" as="alternateBounds" />
          </mxGeometry>
        </mxCell>
        <mxCell id="2rovBy-W9d4GmyHB49PC-419" value="" style="shape=partialRectangle;html=1;whiteSpace=wrap;connectable=0;strokeColor=inherit;overflow=hidden;fillColor=none;top=0;left=0;bottom=0;right=0;pointerEvents=1;" vertex="1" visible="0" parent="2rovBy-W9d4GmyHB49PC-416">
          <mxGeometry x="350" width="30" height="50" as="geometry">
            <mxRectangle width="30" height="50" as="alternateBounds" />
          </mxGeometry>
        </mxCell>
        <mxCell id="2rovBy-W9d4GmyHB49PC-420" value="" style="shape=partialRectangle;html=1;whiteSpace=wrap;connectable=0;strokeColor=inherit;overflow=hidden;fillColor=none;top=0;left=0;bottom=0;right=0;pointerEvents=1;" vertex="1" visible="0" parent="2rovBy-W9d4GmyHB49PC-416">
          <mxGeometry x="380" width="120" height="50" as="geometry">
            <mxRectangle width="120" height="50" as="alternateBounds" />
          </mxGeometry>
        </mxCell>
        <mxCell id="2rovBy-W9d4GmyHB49PC-421" value="&lt;div&gt;NUMBER:&lt;/div&gt;&lt;div&gt;&lt;br&gt;&lt;/div&gt;" style="shape=partialRectangle;html=1;whiteSpace=wrap;connectable=0;strokeColor=inherit;overflow=hidden;fillColor=none;top=0;left=0;bottom=0;right=0;pointerEvents=1;rowspan=1;colspan=2;align=left;" vertex="1" parent="2rovBy-W9d4GmyHB49PC-416">
          <mxGeometry x="500" width="210" height="50" as="geometry">
            <mxRectangle width="120" height="50" as="alternateBounds" />
          </mxGeometry>
        </mxCell>
        <mxCell id="2rovBy-W9d4GmyHB49PC-422" value="" style="shape=partialRectangle;html=1;whiteSpace=wrap;connectable=0;strokeColor=inherit;overflow=hidden;fillColor=none;top=0;left=0;bottom=0;right=0;pointerEvents=1;" vertex="1" visible="0" parent="2rovBy-W9d4GmyHB49PC-416">
          <mxGeometry x="620" width="90" height="50" as="geometry">
            <mxRectangle width="90" height="50" as="alternateBounds" />
          </mxGeometry>
        </mxCell>
        <mxCell id="2rovBy-W9d4GmyHB49PC-423" value="" style="rounded=0;whiteSpace=wrap;html=1;fillColor=#FFF9E6;strokeColor=#919191;" vertex="1" parent="2rovBy-W9d4GmyHB49PC-379">
          <mxGeometry x="642" y="490.9601630317629" width="60" height="20.3698369682362" as="geometry" />
        </mxCell>
        <mxCell id="2rovBy-W9d4GmyHB49PC-424" value="&lt;h1 class=&quot;firstHeading mw-first-heading&quot; id=&quot;firstHeading&quot;&gt;&lt;br&gt;&lt;span class=&quot;mw-page-title-main&quot;&gt;&lt;span style=&quot;font-weight: normal;&quot;&gt;&lt;/span&gt;&lt;/span&gt;&lt;/h1&gt;&lt;h1 class=&quot;firstHeading mw-first-heading&quot; id=&quot;firstHeading&quot;&gt;&lt;span class=&quot;mw-page-title-main&quot;&gt;&lt;span style=&quot;font-weight: normal;&quot;&gt;&lt;font style=&quot;font-size: 14px;&quot;&gt;Інвентаризація&lt;/font&gt;&lt;/span&gt;&lt;/span&gt;&lt;/h1&gt;&lt;div&gt;&lt;br&gt;&lt;/div&gt;&lt;div&gt;0p.&lt;span style=&quot;white-space: pre;&quot;&gt;&#x9;&lt;/span&gt;&lt;span style=&quot;white-space: pre;&quot;&gt;&#x9;&lt;/span&gt;&lt;span style=&quot;white-space: pre;&quot;&gt;&#x9;&lt;/span&gt;&lt;span style=&quot;white-space: pre;&quot;&gt;&#x9;&lt;/span&gt;&lt;span style=&quot;white-space: pre;&quot;&gt;&#x9;&lt;/span&gt;&lt;span style=&quot;white-space: pre;&quot;&gt;&#x9;&lt;/span&gt;&lt;span style=&quot;white-space: pre;&quot;&gt;&#x9;&lt;/span&gt;&lt;span style=&quot;white-space: pre;&quot;&gt;&#x9;&lt;/span&gt;0&lt;br&gt;&lt;/div&gt;&lt;div&gt;&lt;br&gt;&lt;/div&gt;" style="rounded=0;whiteSpace=wrap;html=1;strokeColor=#333333;fillColor=#FFF9E6;shadow=1;" vertex="1" parent="2rovBy-W9d4GmyHB49PC-379">
          <mxGeometry x="245" y="180.3527129504435" width="220" height="120.23514196696235" as="geometry" />
        </mxCell>
        <mxCell id="2rovBy-W9d4GmyHB49PC-425" value="" style="endArrow=classic;html=1;rounded=0;entryX=0;entryY=0.5;entryDx=0;entryDy=0;" edge="1" parent="2rovBy-W9d4GmyHB49PC-379" target="2rovBy-W9d4GmyHB49PC-424">
          <mxGeometry width="50" height="50" relative="1" as="geometry">
            <mxPoint x="20" y="240.4702839339247" as="sourcePoint" />
            <mxPoint x="200" y="250.4898790978382" as="targetPoint" />
          </mxGeometry>
        </mxCell>
        <mxCell id="2rovBy-W9d4GmyHB49PC-426" value="Інформація про активи" style="text;html=1;align=center;verticalAlign=middle;whiteSpace=wrap;rounded=0;" vertex="1" parent="2rovBy-W9d4GmyHB49PC-379">
          <mxGeometry x="50" y="205.40170086022732" width="170" height="30.058785491740586" as="geometry" />
        </mxCell>
        <mxCell id="2rovBy-W9d4GmyHB49PC-427" value="" style="endArrow=classic;html=1;rounded=0;" edge="1" parent="2rovBy-W9d4GmyHB49PC-379">
          <mxGeometry width="50" height="50" relative="1" as="geometry">
            <mxPoint x="306" y="430.84259204828174" as="sourcePoint" />
            <mxPoint x="306" y="300.5878549174059" as="targetPoint" />
          </mxGeometry>
        </mxCell>
        <mxCell id="2rovBy-W9d4GmyHB49PC-428" value="Персонал" style="edgeLabel;html=1;align=center;verticalAlign=middle;resizable=0;points=[];labelBackgroundColor=none;" vertex="1" connectable="0" parent="2rovBy-W9d4GmyHB49PC-427">
          <mxGeometry x="0.6688" y="2" relative="1" as="geometry">
            <mxPoint x="-28" y="29" as="offset" />
          </mxGeometry>
        </mxCell>
        <mxCell id="2rovBy-W9d4GmyHB49PC-429" value="" style="endArrow=classic;html=1;rounded=0;" edge="1" parent="2rovBy-W9d4GmyHB49PC-379">
          <mxGeometry width="50" height="50" relative="1" as="geometry">
            <mxPoint x="410" y="430.84259204828174" as="sourcePoint" />
            <mxPoint x="410" y="300.5878549174059" as="targetPoint" />
          </mxGeometry>
        </mxCell>
        <mxCell id="2rovBy-W9d4GmyHB49PC-430" value="&lt;div&gt;Комп&#39;ютер,&lt;/div&gt;&lt;div&gt;ПЗ&lt;br&gt;&lt;/div&gt;" style="edgeLabel;html=1;align=center;verticalAlign=middle;resizable=0;points=[];labelBackgroundColor=none;" vertex="1" connectable="0" parent="2rovBy-W9d4GmyHB49PC-429">
          <mxGeometry x="0.1993" y="1" relative="1" as="geometry">
            <mxPoint x="-29" as="offset" />
          </mxGeometry>
        </mxCell>
        <mxCell id="2rovBy-W9d4GmyHB49PC-431" value="" style="endArrow=classic;html=1;rounded=0;exitX=1;exitY=0.5;exitDx=0;exitDy=0;" edge="1" parent="2rovBy-W9d4GmyHB49PC-379" source="2rovBy-W9d4GmyHB49PC-424">
          <mxGeometry width="50" height="50" relative="1" as="geometry">
            <mxPoint x="220" y="300.5878549174059" as="sourcePoint" />
            <mxPoint x="680" y="240.4702839339247" as="targetPoint" />
          </mxGeometry>
        </mxCell>
        <mxCell id="2rovBy-W9d4GmyHB49PC-432" value="" style="endArrow=classic;html=1;rounded=0;entryX=0.75;entryY=0;entryDx=0;entryDy=0;" edge="1" parent="2rovBy-W9d4GmyHB49PC-379">
          <mxGeometry width="50" height="50" relative="1" as="geometry">
            <mxPoint x="434" y="100.19595163913529" as="sourcePoint" />
            <mxPoint x="434" y="180.35271295044356" as="targetPoint" />
          </mxGeometry>
        </mxCell>
        <mxCell id="2rovBy-W9d4GmyHB49PC-433" value="&lt;br&gt;&lt;h3 id=&quot;30&quot; class=&quot;tc head_struct bmf bl_npa_show&quot;&gt;&lt;span&gt;&lt;span style=&quot;font-weight: normal;&quot;&gt;Положення&lt;/span&gt;&lt;br&gt;&lt;span style=&quot;font-weight: normal;&quot;&gt;про інвентаризацію активів&lt;/span&gt;&lt;/span&gt;&lt;/h3&gt;&lt;div&gt;&lt;br&gt;&lt;/div&gt;" style="edgeLabel;html=1;align=left;verticalAlign=middle;resizable=0;points=[];labelBackgroundColor=none;fontSize=10;fontStyle=0" vertex="1" connectable="0" parent="2rovBy-W9d4GmyHB49PC-432">
          <mxGeometry x="-0.0465" y="-2" relative="1" as="geometry">
            <mxPoint x="12" y="-17" as="offset" />
          </mxGeometry>
        </mxCell>
        <mxCell id="2rovBy-W9d4GmyHB49PC-434" value="" style="endArrow=classic;html=1;rounded=0;entryX=0.25;entryY=0;entryDx=0;entryDy=0;" edge="1" parent="2rovBy-W9d4GmyHB49PC-379">
          <mxGeometry width="50" height="50" relative="1" as="geometry">
            <mxPoint x="276" y="110.21554680304881" as="sourcePoint" />
            <mxPoint x="276" y="180.35271295044356" as="targetPoint" />
          </mxGeometry>
        </mxCell>
        <mxCell id="2rovBy-W9d4GmyHB49PC-435" value="Інструкції" style="edgeLabel;html=1;align=center;verticalAlign=middle;resizable=0;points=[];labelBackgroundColor=none;" vertex="1" connectable="0" parent="2rovBy-W9d4GmyHB49PC-434">
          <mxGeometry x="-0.2884" y="1" relative="1" as="geometry">
            <mxPoint x="-35" as="offset" />
          </mxGeometry>
        </mxCell>
        <mxCell id="2rovBy-W9d4GmyHB49PC-436" value="Звіт про інвентаризацію" style="text;html=1;align=center;verticalAlign=middle;whiteSpace=wrap;rounded=0;" vertex="1" parent="2rovBy-W9d4GmyHB49PC-379">
          <mxGeometry x="480" y="206.73430701702793" width="170" height="30.058785491740586" as="geometry" />
        </mxCell>
        <mxCell id="2rovBy-W9d4GmyHB49PC-437" value="" style="endArrow=classic;html=1;rounded=0;entryX=0.392;entryY=-0.012;entryDx=0;entryDy=0;entryPerimeter=0;" edge="1" parent="2rovBy-W9d4GmyHB49PC-379">
          <mxGeometry width="50" height="50" relative="1" as="geometry">
            <mxPoint x="327" y="111.54815295984929" as="sourcePoint" />
            <mxPoint x="327.24000000000024" y="178.90989124683998" as="targetPoint" />
            <Array as="points">
              <mxPoint x="327" y="151.6265336155034" />
            </Array>
          </mxGeometry>
        </mxCell>
        <mxCell id="2rovBy-W9d4GmyHB49PC-438" value="&lt;div&gt;Бюджетний&amp;nbsp;&lt;/div&gt;&lt;div&gt;кодекс України&lt;/div&gt;" style="text;html=1;align=center;verticalAlign=middle;resizable=0;points=[];autosize=1;strokeColor=none;fillColor=none;" vertex="1" parent="2rovBy-W9d4GmyHB49PC-379">
          <mxGeometry x="275" y="76.47956988615195" width="110" height="40" as="geometry" />
        </mxCell>
        <mxCell id="2rovBy-W9d4GmyHB49PC-439" value="" style="endArrow=classic;html=1;rounded=0;entryX=0.657;entryY=-0.005;entryDx=0;entryDy=0;entryPerimeter=0;" edge="1" parent="2rovBy-W9d4GmyHB49PC-379" target="2rovBy-W9d4GmyHB49PC-424">
          <mxGeometry width="50" height="50" relative="1" as="geometry">
            <mxPoint x="390" y="116.55795054180606" as="sourcePoint" />
            <mxPoint x="300" y="231.78329492681164" as="targetPoint" />
          </mxGeometry>
        </mxCell>
        <mxCell id="2rovBy-W9d4GmyHB49PC-440" value="Стандарти" style="text;html=1;align=center;verticalAlign=middle;resizable=0;points=[];autosize=1;strokeColor=none;fillColor=none;" vertex="1" parent="2rovBy-W9d4GmyHB49PC-379">
          <mxGeometry x="350" y="101.52855779593577" width="80" height="30" as="geometry" />
        </mxCell>
        <mxCell id="2rovBy-W9d4GmyHB49PC-441" value="" style="endArrow=classic;html=1;rounded=0;entryX=0;entryY=0.75;entryDx=0;entryDy=0;" edge="1" parent="2rovBy-W9d4GmyHB49PC-379" target="2rovBy-W9d4GmyHB49PC-424">
          <mxGeometry width="50" height="50" relative="1" as="geometry">
            <mxPoint x="20" y="270.33" as="sourcePoint" />
            <mxPoint x="550" y="261.33" as="targetPoint" />
          </mxGeometry>
        </mxCell>
        <mxCell id="2rovBy-W9d4GmyHB49PC-442" value="&lt;div&gt;Документація&lt;/div&gt;" style="text;html=1;align=center;verticalAlign=middle;whiteSpace=wrap;rounded=0;" vertex="1" parent="2rovBy-W9d4GmyHB49PC-379">
          <mxGeometry x="50" y="270.5317008602272" width="170" height="30.058785491740586" as="geometry" />
        </mxCell>
        <mxCell id="2rovBy-W9d4GmyHB49PC-443" value="" style="group;fillColor=#FFF9E6;" vertex="1" connectable="0" parent="1">
          <mxGeometry x="950" y="330" width="710" height="511.33" as="geometry" />
        </mxCell>
        <mxCell id="2rovBy-W9d4GmyHB49PC-444" value="" style="shape=table;startSize=0;container=1;collapsible=0;childLayout=tableLayout;fillColor=#fff9e6;strokeColor=#919191;" vertex="1" parent="2rovBy-W9d4GmyHB49PC-443">
          <mxGeometry x="-8" width="710" height="510.32999999999987" as="geometry" />
        </mxCell>
        <mxCell id="2rovBy-W9d4GmyHB49PC-445" value="" style="shape=tableRow;horizontal=0;startSize=0;swimlaneHead=0;swimlaneBody=0;strokeColor=inherit;top=0;left=0;bottom=0;right=0;collapsible=0;dropTarget=0;fillColor=none;points=[[0,0.5],[1,0.5]];portConstraint=eastwest;" vertex="1" parent="2rovBy-W9d4GmyHB49PC-444">
          <mxGeometry width="710" height="20" as="geometry" />
        </mxCell>
        <mxCell id="2rovBy-W9d4GmyHB49PC-446" value="&lt;div align=&quot;left&quot; style=&quot;margin-top: 0px; padding-right: 0px;&quot;&gt;USED AT:&lt;/div&gt;&lt;div align=&quot;left&quot; style=&quot;margin-top: 0px; padding-right: 0px;&quot;&gt;&lt;br&gt;&lt;/div&gt;&lt;div align=&quot;left&quot; style=&quot;margin-top: 0px; padding-right: 0px;&quot;&gt;&lt;br&gt;&lt;/div&gt;&lt;div align=&quot;left&quot; style=&quot;margin-top: 0px; padding-right: 0px;&quot;&gt;&lt;br&gt;&lt;/div&gt;&lt;div align=&quot;left&quot; style=&quot;margin-top: 0px; padding-right: 0px;&quot;&gt;&lt;br&gt;&lt;/div&gt;" style="shape=partialRectangle;html=1;whiteSpace=wrap;connectable=0;strokeColor=inherit;overflow=hidden;fillColor=none;top=0;left=0;bottom=0;right=0;pointerEvents=1;rowspan=4;colspan=1;align=left;" vertex="1" parent="2rovBy-W9d4GmyHB49PC-445">
          <mxGeometry width="90" height="80" as="geometry">
            <mxRectangle width="90" height="20" as="alternateBounds" />
          </mxGeometry>
        </mxCell>
        <mxCell id="2rovBy-W9d4GmyHB49PC-447" value="&lt;div align=&quot;left&quot;&gt;AUTHOR: Elvira&lt;span style=&quot;white-space: pre;&quot;&gt;&#x9;&lt;/span&gt;&lt;span style=&quot;white-space: pre;&quot;&gt;&#x9;&lt;/span&gt;&lt;span style=&quot;white-space: pre;&quot;&gt;&#x9;&lt;/span&gt;DATE: 16.12.2024&lt;br&gt;&lt;/div&gt;&lt;div align=&quot;left&quot;&gt;PROJECT: Practic7&lt;span style=&quot;white-space: pre;&quot;&gt;&#x9;&lt;/span&gt;&lt;span style=&quot;white-space: pre;&quot;&gt;&#x9;&lt;/span&gt;REV:&amp;nbsp;&amp;nbsp; 20.12.2024&lt;br&gt;&lt;/div&gt;&lt;div align=&quot;left&quot;&gt;&lt;br&gt;&lt;/div&gt;&lt;div align=&quot;left&quot;&gt;&lt;br&gt;&lt;/div&gt;&lt;div align=&quot;left&quot;&gt;NOTES: 1 2 3 4 5 6 7 8 9 10&lt;br&gt;&lt;/div&gt;" style="shape=partialRectangle;html=1;whiteSpace=wrap;connectable=0;strokeColor=inherit;overflow=hidden;fillColor=none;top=0;left=0;bottom=0;right=0;pointerEvents=1;rowspan=4;colspan=1;align=left;" vertex="1" parent="2rovBy-W9d4GmyHB49PC-445">
          <mxGeometry x="90" width="260" height="80" as="geometry">
            <mxRectangle width="260" height="20" as="alternateBounds" />
          </mxGeometry>
        </mxCell>
        <mxCell id="2rovBy-W9d4GmyHB49PC-448" value="" style="shape=partialRectangle;html=1;whiteSpace=wrap;connectable=0;strokeColor=inherit;overflow=hidden;fillColor=#333333;top=0;left=0;bottom=0;right=0;pointerEvents=1;" vertex="1" parent="2rovBy-W9d4GmyHB49PC-445">
          <mxGeometry x="350" width="30" height="20" as="geometry">
            <mxRectangle width="30" height="20" as="alternateBounds" />
          </mxGeometry>
        </mxCell>
        <mxCell id="2rovBy-W9d4GmyHB49PC-449" value="WORKING" style="shape=partialRectangle;html=1;whiteSpace=wrap;connectable=0;strokeColor=inherit;overflow=hidden;fillColor=none;top=0;left=0;bottom=0;right=0;pointerEvents=1;align=left;" vertex="1" parent="2rovBy-W9d4GmyHB49PC-445">
          <mxGeometry x="380" width="120" height="20" as="geometry">
            <mxRectangle width="120" height="20" as="alternateBounds" />
          </mxGeometry>
        </mxCell>
        <mxCell id="2rovBy-W9d4GmyHB49PC-450" value="&lt;div align=&quot;left&quot;&gt;READER&lt;span style=&quot;white-space: pre;&quot;&gt;&#x9;&lt;/span&gt;DATE&lt;/div&gt;" style="shape=partialRectangle;html=1;whiteSpace=wrap;connectable=0;strokeColor=inherit;overflow=hidden;fillColor=none;top=0;left=0;bottom=0;right=0;pointerEvents=1;align=left;" vertex="1" parent="2rovBy-W9d4GmyHB49PC-445">
          <mxGeometry x="500" width="120" height="20" as="geometry">
            <mxRectangle width="120" height="20" as="alternateBounds" />
          </mxGeometry>
        </mxCell>
        <mxCell id="2rovBy-W9d4GmyHB49PC-451" value="&lt;div align=&quot;left&quot;&gt;CONTENT:&lt;/div&gt;&lt;div align=&quot;left&quot;&gt;&lt;b&gt;&lt;font style=&quot;font-size: 18px;&quot;&gt;&lt;br&gt;&lt;/font&gt;&lt;/b&gt;&lt;/div&gt;&lt;div align=&quot;left&quot;&gt;&lt;b&gt;&lt;font style=&quot;font-size: 18px;&quot;&gt;&lt;span style=&quot;white-space: pre;&quot;&gt;&#x9;&lt;/span&gt;&lt;/font&gt;&lt;/b&gt;&lt;/div&gt;&lt;div align=&quot;left&quot;&gt;A-0&lt;br&gt;&lt;/div&gt;&lt;div align=&quot;left&quot;&gt;&lt;br&gt;&lt;/div&gt;&lt;div align=&quot;left&quot;&gt;&lt;br&gt;&lt;/div&gt;" style="shape=partialRectangle;html=1;whiteSpace=wrap;connectable=0;strokeColor=inherit;overflow=hidden;fillColor=none;top=0;left=0;bottom=0;right=0;pointerEvents=1;rowspan=4;colspan=1;align=left;" vertex="1" parent="2rovBy-W9d4GmyHB49PC-445">
          <mxGeometry x="620" width="90" height="80" as="geometry">
            <mxRectangle width="90" height="20" as="alternateBounds" />
          </mxGeometry>
        </mxCell>
        <mxCell id="2rovBy-W9d4GmyHB49PC-452" value="" style="shape=tableRow;horizontal=0;startSize=0;swimlaneHead=0;swimlaneBody=0;strokeColor=inherit;top=0;left=0;bottom=0;right=0;collapsible=0;dropTarget=0;fillColor=none;points=[[0,0.5],[1,0.5]];portConstraint=eastwest;" vertex="1" parent="2rovBy-W9d4GmyHB49PC-444">
          <mxGeometry y="20" width="710" height="20" as="geometry" />
        </mxCell>
        <mxCell id="2rovBy-W9d4GmyHB49PC-453" value="" style="shape=partialRectangle;html=1;whiteSpace=wrap;connectable=0;strokeColor=inherit;overflow=hidden;fillColor=none;top=0;left=0;bottom=0;right=0;pointerEvents=1;" vertex="1" visible="0" parent="2rovBy-W9d4GmyHB49PC-452">
          <mxGeometry width="90" height="20" as="geometry">
            <mxRectangle width="90" height="20" as="alternateBounds" />
          </mxGeometry>
        </mxCell>
        <mxCell id="2rovBy-W9d4GmyHB49PC-454" value="" style="shape=partialRectangle;html=1;whiteSpace=wrap;connectable=0;strokeColor=inherit;overflow=hidden;fillColor=none;top=0;left=0;bottom=0;right=0;pointerEvents=1;" vertex="1" visible="0" parent="2rovBy-W9d4GmyHB49PC-452">
          <mxGeometry x="90" width="260" height="20" as="geometry">
            <mxRectangle width="260" height="20" as="alternateBounds" />
          </mxGeometry>
        </mxCell>
        <mxCell id="2rovBy-W9d4GmyHB49PC-455" value="" style="shape=partialRectangle;html=1;whiteSpace=wrap;connectable=0;strokeColor=inherit;overflow=hidden;fillColor=none;top=0;left=0;bottom=0;right=0;pointerEvents=1;" vertex="1" parent="2rovBy-W9d4GmyHB49PC-452">
          <mxGeometry x="350" width="30" height="20" as="geometry">
            <mxRectangle width="30" height="20" as="alternateBounds" />
          </mxGeometry>
        </mxCell>
        <mxCell id="2rovBy-W9d4GmyHB49PC-456" value="DRAFT" style="shape=partialRectangle;html=1;whiteSpace=wrap;connectable=0;strokeColor=inherit;overflow=hidden;fillColor=none;top=0;left=0;bottom=0;right=0;pointerEvents=1;align=left;" vertex="1" parent="2rovBy-W9d4GmyHB49PC-452">
          <mxGeometry x="380" width="120" height="20" as="geometry">
            <mxRectangle width="120" height="20" as="alternateBounds" />
          </mxGeometry>
        </mxCell>
        <mxCell id="2rovBy-W9d4GmyHB49PC-457" value="" style="shape=partialRectangle;html=1;whiteSpace=wrap;connectable=0;strokeColor=inherit;overflow=hidden;fillColor=none;top=0;left=0;bottom=0;right=0;pointerEvents=1;" vertex="1" parent="2rovBy-W9d4GmyHB49PC-452">
          <mxGeometry x="500" width="120" height="20" as="geometry">
            <mxRectangle width="120" height="20" as="alternateBounds" />
          </mxGeometry>
        </mxCell>
        <mxCell id="2rovBy-W9d4GmyHB49PC-458" value="" style="shape=partialRectangle;html=1;whiteSpace=wrap;connectable=0;strokeColor=inherit;overflow=hidden;fillColor=none;top=0;left=0;bottom=0;right=0;pointerEvents=1;" vertex="1" visible="0" parent="2rovBy-W9d4GmyHB49PC-452">
          <mxGeometry x="620" width="90" height="20" as="geometry">
            <mxRectangle width="90" height="20" as="alternateBounds" />
          </mxGeometry>
        </mxCell>
        <mxCell id="2rovBy-W9d4GmyHB49PC-459" value="" style="shape=tableRow;horizontal=0;startSize=0;swimlaneHead=0;swimlaneBody=0;strokeColor=inherit;top=0;left=0;bottom=0;right=0;collapsible=0;dropTarget=0;fillColor=none;points=[[0,0.5],[1,0.5]];portConstraint=eastwest;" vertex="1" parent="2rovBy-W9d4GmyHB49PC-444">
          <mxGeometry y="40" width="710" height="20" as="geometry" />
        </mxCell>
        <mxCell id="2rovBy-W9d4GmyHB49PC-460" value="" style="shape=partialRectangle;html=1;whiteSpace=wrap;connectable=0;strokeColor=inherit;overflow=hidden;fillColor=none;top=0;left=0;bottom=0;right=0;pointerEvents=1;" vertex="1" visible="0" parent="2rovBy-W9d4GmyHB49PC-459">
          <mxGeometry width="90" height="20" as="geometry">
            <mxRectangle width="90" height="20" as="alternateBounds" />
          </mxGeometry>
        </mxCell>
        <mxCell id="2rovBy-W9d4GmyHB49PC-461" value="" style="shape=partialRectangle;html=1;whiteSpace=wrap;connectable=0;strokeColor=inherit;overflow=hidden;fillColor=none;top=0;left=0;bottom=0;right=0;pointerEvents=1;" vertex="1" visible="0" parent="2rovBy-W9d4GmyHB49PC-459">
          <mxGeometry x="90" width="260" height="20" as="geometry">
            <mxRectangle width="260" height="20" as="alternateBounds" />
          </mxGeometry>
        </mxCell>
        <mxCell id="2rovBy-W9d4GmyHB49PC-462" value="" style="shape=partialRectangle;html=1;whiteSpace=wrap;connectable=0;strokeColor=inherit;overflow=hidden;fillColor=none;top=0;left=0;bottom=0;right=0;pointerEvents=1;" vertex="1" parent="2rovBy-W9d4GmyHB49PC-459">
          <mxGeometry x="350" width="30" height="20" as="geometry">
            <mxRectangle width="30" height="20" as="alternateBounds" />
          </mxGeometry>
        </mxCell>
        <mxCell id="2rovBy-W9d4GmyHB49PC-463" value="RECOMMENDED" style="shape=partialRectangle;html=1;whiteSpace=wrap;connectable=0;strokeColor=inherit;overflow=hidden;fillColor=none;top=0;left=0;bottom=0;right=0;pointerEvents=1;align=left;" vertex="1" parent="2rovBy-W9d4GmyHB49PC-459">
          <mxGeometry x="380" width="120" height="20" as="geometry">
            <mxRectangle width="120" height="20" as="alternateBounds" />
          </mxGeometry>
        </mxCell>
        <mxCell id="2rovBy-W9d4GmyHB49PC-464" value="" style="shape=partialRectangle;html=1;whiteSpace=wrap;connectable=0;strokeColor=inherit;overflow=hidden;fillColor=none;top=0;left=0;bottom=0;right=0;pointerEvents=1;" vertex="1" parent="2rovBy-W9d4GmyHB49PC-459">
          <mxGeometry x="500" width="120" height="20" as="geometry">
            <mxRectangle width="120" height="20" as="alternateBounds" />
          </mxGeometry>
        </mxCell>
        <mxCell id="2rovBy-W9d4GmyHB49PC-465" value="" style="shape=partialRectangle;html=1;whiteSpace=wrap;connectable=0;strokeColor=inherit;overflow=hidden;fillColor=none;top=0;left=0;bottom=0;right=0;pointerEvents=1;" vertex="1" visible="0" parent="2rovBy-W9d4GmyHB49PC-459">
          <mxGeometry x="620" width="90" height="20" as="geometry">
            <mxRectangle width="90" height="20" as="alternateBounds" />
          </mxGeometry>
        </mxCell>
        <mxCell id="2rovBy-W9d4GmyHB49PC-466" value="" style="shape=tableRow;horizontal=0;startSize=0;swimlaneHead=0;swimlaneBody=0;strokeColor=inherit;top=0;left=0;bottom=0;right=0;collapsible=0;dropTarget=0;fillColor=none;points=[[0,0.5],[1,0.5]];portConstraint=eastwest;" vertex="1" parent="2rovBy-W9d4GmyHB49PC-444">
          <mxGeometry y="60" width="710" height="20" as="geometry" />
        </mxCell>
        <mxCell id="2rovBy-W9d4GmyHB49PC-467" value="" style="shape=partialRectangle;html=1;whiteSpace=wrap;connectable=0;strokeColor=inherit;overflow=hidden;fillColor=none;top=0;left=0;bottom=0;right=0;pointerEvents=1;" vertex="1" visible="0" parent="2rovBy-W9d4GmyHB49PC-466">
          <mxGeometry width="90" height="20" as="geometry">
            <mxRectangle width="90" height="20" as="alternateBounds" />
          </mxGeometry>
        </mxCell>
        <mxCell id="2rovBy-W9d4GmyHB49PC-468" value="" style="shape=partialRectangle;html=1;whiteSpace=wrap;connectable=0;strokeColor=inherit;overflow=hidden;fillColor=none;top=0;left=0;bottom=0;right=0;pointerEvents=1;" vertex="1" visible="0" parent="2rovBy-W9d4GmyHB49PC-466">
          <mxGeometry x="90" width="260" height="20" as="geometry">
            <mxRectangle width="260" height="20" as="alternateBounds" />
          </mxGeometry>
        </mxCell>
        <mxCell id="2rovBy-W9d4GmyHB49PC-469" value="" style="shape=partialRectangle;html=1;whiteSpace=wrap;connectable=0;strokeColor=inherit;overflow=hidden;fillColor=none;top=0;left=0;bottom=0;right=0;pointerEvents=1;" vertex="1" parent="2rovBy-W9d4GmyHB49PC-466">
          <mxGeometry x="350" width="30" height="20" as="geometry">
            <mxRectangle width="30" height="20" as="alternateBounds" />
          </mxGeometry>
        </mxCell>
        <mxCell id="2rovBy-W9d4GmyHB49PC-470" value="&lt;div align=&quot;left&quot;&gt;PUBLICATION&lt;/div&gt;" style="shape=partialRectangle;html=1;whiteSpace=wrap;connectable=0;strokeColor=inherit;overflow=hidden;fillColor=none;top=0;left=0;bottom=0;right=0;pointerEvents=1;align=left;" vertex="1" parent="2rovBy-W9d4GmyHB49PC-466">
          <mxGeometry x="380" width="120" height="20" as="geometry">
            <mxRectangle width="120" height="20" as="alternateBounds" />
          </mxGeometry>
        </mxCell>
        <mxCell id="2rovBy-W9d4GmyHB49PC-471" value="" style="shape=partialRectangle;html=1;whiteSpace=wrap;connectable=0;strokeColor=inherit;overflow=hidden;fillColor=none;top=0;left=0;bottom=0;right=0;pointerEvents=1;" vertex="1" parent="2rovBy-W9d4GmyHB49PC-466">
          <mxGeometry x="500" width="120" height="20" as="geometry">
            <mxRectangle width="120" height="20" as="alternateBounds" />
          </mxGeometry>
        </mxCell>
        <mxCell id="2rovBy-W9d4GmyHB49PC-472" value="" style="shape=partialRectangle;html=1;whiteSpace=wrap;connectable=0;strokeColor=inherit;overflow=hidden;fillColor=none;top=0;left=0;bottom=0;right=0;pointerEvents=1;" vertex="1" visible="0" parent="2rovBy-W9d4GmyHB49PC-466">
          <mxGeometry x="620" width="90" height="20" as="geometry">
            <mxRectangle width="90" height="20" as="alternateBounds" />
          </mxGeometry>
        </mxCell>
        <mxCell id="2rovBy-W9d4GmyHB49PC-473" value="" style="shape=tableRow;horizontal=0;startSize=0;swimlaneHead=0;swimlaneBody=0;strokeColor=inherit;top=0;left=0;bottom=0;right=0;collapsible=0;dropTarget=0;fillColor=none;points=[[0,0.5],[1,0.5]];portConstraint=eastwest;" vertex="1" parent="2rovBy-W9d4GmyHB49PC-444">
          <mxGeometry y="80" width="710" height="380" as="geometry" />
        </mxCell>
        <mxCell id="2rovBy-W9d4GmyHB49PC-474" value="" style="shape=partialRectangle;html=1;whiteSpace=wrap;connectable=0;strokeColor=inherit;overflow=hidden;fillColor=none;top=0;left=0;bottom=0;right=0;pointerEvents=1;rowspan=1;colspan=6;" vertex="1" parent="2rovBy-W9d4GmyHB49PC-473">
          <mxGeometry width="710" height="380" as="geometry">
            <mxRectangle width="90" height="380" as="alternateBounds" />
          </mxGeometry>
        </mxCell>
        <mxCell id="2rovBy-W9d4GmyHB49PC-475" value="" style="shape=partialRectangle;html=1;whiteSpace=wrap;connectable=0;strokeColor=inherit;overflow=hidden;fillColor=none;top=0;left=0;bottom=0;right=0;pointerEvents=1;" vertex="1" visible="0" parent="2rovBy-W9d4GmyHB49PC-473">
          <mxGeometry x="90" width="260" height="380" as="geometry">
            <mxRectangle width="260" height="380" as="alternateBounds" />
          </mxGeometry>
        </mxCell>
        <mxCell id="2rovBy-W9d4GmyHB49PC-476" value="" style="shape=partialRectangle;html=1;whiteSpace=wrap;connectable=0;strokeColor=inherit;overflow=hidden;fillColor=none;top=0;left=0;bottom=0;right=0;pointerEvents=1;" vertex="1" visible="0" parent="2rovBy-W9d4GmyHB49PC-473">
          <mxGeometry x="350" width="30" height="380" as="geometry">
            <mxRectangle width="30" height="380" as="alternateBounds" />
          </mxGeometry>
        </mxCell>
        <mxCell id="2rovBy-W9d4GmyHB49PC-477" value="" style="shape=partialRectangle;html=1;whiteSpace=wrap;connectable=0;strokeColor=inherit;overflow=hidden;fillColor=none;top=0;left=0;bottom=0;right=0;pointerEvents=1;" vertex="1" visible="0" parent="2rovBy-W9d4GmyHB49PC-473">
          <mxGeometry x="380" width="120" height="380" as="geometry">
            <mxRectangle width="120" height="380" as="alternateBounds" />
          </mxGeometry>
        </mxCell>
        <mxCell id="2rovBy-W9d4GmyHB49PC-478" value="" style="shape=partialRectangle;html=1;whiteSpace=wrap;connectable=0;strokeColor=inherit;overflow=hidden;fillColor=none;top=0;left=0;bottom=0;right=0;pointerEvents=1;" vertex="1" visible="0" parent="2rovBy-W9d4GmyHB49PC-473">
          <mxGeometry x="500" width="120" height="380" as="geometry">
            <mxRectangle width="120" height="380" as="alternateBounds" />
          </mxGeometry>
        </mxCell>
        <mxCell id="2rovBy-W9d4GmyHB49PC-479" value="" style="shape=partialRectangle;html=1;whiteSpace=wrap;connectable=0;strokeColor=inherit;overflow=hidden;fillColor=none;top=0;left=0;bottom=0;right=0;pointerEvents=1;" vertex="1" visible="0" parent="2rovBy-W9d4GmyHB49PC-473">
          <mxGeometry x="620" width="90" height="380" as="geometry">
            <mxRectangle width="90" height="380" as="alternateBounds" />
          </mxGeometry>
        </mxCell>
        <mxCell id="2rovBy-W9d4GmyHB49PC-480" value="" style="shape=tableRow;horizontal=0;startSize=0;swimlaneHead=0;swimlaneBody=0;strokeColor=inherit;top=0;left=0;bottom=0;right=0;collapsible=0;dropTarget=0;fillColor=none;points=[[0,0.5],[1,0.5]];portConstraint=eastwest;" vertex="1" parent="2rovBy-W9d4GmyHB49PC-444">
          <mxGeometry y="460" width="710" height="50" as="geometry" />
        </mxCell>
        <mxCell id="2rovBy-W9d4GmyHB49PC-481" value="&lt;div align=&quot;left&quot;&gt;NODE:&lt;/div&gt;&lt;div align=&quot;left&quot;&gt;&lt;span style=&quot;white-space: pre;&quot;&gt;&#x9;&lt;/span&gt;&lt;span style=&quot;white-space: pre;&quot;&gt;&#x9;&lt;/span&gt;&lt;font style=&quot;font-size: 17px;&quot;&gt;A0&lt;/font&gt;&lt;br&gt;&lt;/div&gt;" style="shape=partialRectangle;html=1;whiteSpace=wrap;connectable=0;strokeColor=inherit;overflow=hidden;fillColor=none;top=0;left=0;bottom=0;right=0;pointerEvents=1;align=left;" vertex="1" parent="2rovBy-W9d4GmyHB49PC-480">
          <mxGeometry width="90" height="50" as="geometry">
            <mxRectangle width="90" height="50" as="alternateBounds" />
          </mxGeometry>
        </mxCell>
        <mxCell id="2rovBy-W9d4GmyHB49PC-482" value="&lt;div&gt;TITLE:&lt;/div&gt;&lt;div&gt;&lt;span style=&quot;white-space: pre;&quot;&gt;&#x9;&lt;/span&gt;&lt;span style=&quot;white-space: pre;&quot;&gt;&#x9;&lt;/span&gt;&lt;font style=&quot;font-size: 18px;&quot;&gt;&lt;span style=&quot;line-height: 107%; font-family: &amp;quot;Calibri&amp;quot;, sans-serif;&quot;&gt;&lt;span style=&quot;white-space: pre;&quot;&gt;&#x9;&lt;/span&gt;&lt;span style=&quot;white-space: pre;&quot;&gt;&#x9;&lt;/span&gt;&lt;span style=&quot;white-space: pre;&quot;&gt;&#x9;&lt;/span&gt;&lt;span style=&quot;white-space: pre;&quot;&gt;&#x9;&lt;/span&gt;Інвентаризація&lt;/span&gt;&lt;/font&gt;&lt;/div&gt;" style="shape=partialRectangle;html=1;whiteSpace=wrap;connectable=0;strokeColor=inherit;overflow=hidden;fillColor=none;top=0;left=0;bottom=0;right=0;pointerEvents=1;rowspan=1;colspan=3;align=left;" vertex="1" parent="2rovBy-W9d4GmyHB49PC-480">
          <mxGeometry x="90" width="410" height="50" as="geometry">
            <mxRectangle width="260" height="50" as="alternateBounds" />
          </mxGeometry>
        </mxCell>
        <mxCell id="2rovBy-W9d4GmyHB49PC-483" value="" style="shape=partialRectangle;html=1;whiteSpace=wrap;connectable=0;strokeColor=inherit;overflow=hidden;fillColor=none;top=0;left=0;bottom=0;right=0;pointerEvents=1;" vertex="1" visible="0" parent="2rovBy-W9d4GmyHB49PC-480">
          <mxGeometry x="350" width="30" height="50" as="geometry">
            <mxRectangle width="30" height="50" as="alternateBounds" />
          </mxGeometry>
        </mxCell>
        <mxCell id="2rovBy-W9d4GmyHB49PC-484" value="" style="shape=partialRectangle;html=1;whiteSpace=wrap;connectable=0;strokeColor=inherit;overflow=hidden;fillColor=none;top=0;left=0;bottom=0;right=0;pointerEvents=1;" vertex="1" visible="0" parent="2rovBy-W9d4GmyHB49PC-480">
          <mxGeometry x="380" width="120" height="50" as="geometry">
            <mxRectangle width="120" height="50" as="alternateBounds" />
          </mxGeometry>
        </mxCell>
        <mxCell id="2rovBy-W9d4GmyHB49PC-485" value="&lt;div&gt;NUMBER:&lt;/div&gt;&lt;div&gt;&lt;br&gt;&lt;/div&gt;" style="shape=partialRectangle;html=1;whiteSpace=wrap;connectable=0;strokeColor=inherit;overflow=hidden;fillColor=none;top=0;left=0;bottom=0;right=0;pointerEvents=1;rowspan=1;colspan=2;align=left;" vertex="1" parent="2rovBy-W9d4GmyHB49PC-480">
          <mxGeometry x="500" width="210" height="50" as="geometry">
            <mxRectangle width="120" height="50" as="alternateBounds" />
          </mxGeometry>
        </mxCell>
        <mxCell id="2rovBy-W9d4GmyHB49PC-486" value="" style="shape=partialRectangle;html=1;whiteSpace=wrap;connectable=0;strokeColor=inherit;overflow=hidden;fillColor=none;top=0;left=0;bottom=0;right=0;pointerEvents=1;" vertex="1" visible="0" parent="2rovBy-W9d4GmyHB49PC-480">
          <mxGeometry x="620" width="90" height="50" as="geometry">
            <mxRectangle width="90" height="50" as="alternateBounds" />
          </mxGeometry>
        </mxCell>
        <mxCell id="2rovBy-W9d4GmyHB49PC-487" value="" style="rounded=0;whiteSpace=wrap;html=1;fillColor=#FFF9E6;strokeColor=#919191;" vertex="1" parent="2rovBy-W9d4GmyHB49PC-443">
          <mxGeometry x="642" y="489.9601630317629" width="60" height="20.3698369682362" as="geometry" />
        </mxCell>
        <mxCell id="2rovBy-W9d4GmyHB49PC-488" value="" style="endArrow=classic;html=1;rounded=0;" edge="1" parent="2rovBy-W9d4GmyHB49PC-443">
          <mxGeometry width="50" height="50" relative="1" as="geometry">
            <mxPoint x="20" y="240.4702839339247" as="sourcePoint" />
            <mxPoint x="110" y="240" as="targetPoint" />
          </mxGeometry>
        </mxCell>
        <mxCell id="2rovBy-W9d4GmyHB49PC-489" value="&lt;div&gt;Інформація&amp;nbsp;&lt;/div&gt;&lt;div&gt;про активи&lt;/div&gt;" style="text;html=1;align=center;verticalAlign=middle;whiteSpace=wrap;rounded=0;" vertex="1" parent="2rovBy-W9d4GmyHB49PC-443">
          <mxGeometry x="-30" y="200.00170086022732" width="170" height="30.058785491740586" as="geometry" />
        </mxCell>
        <mxCell id="2rovBy-W9d4GmyHB49PC-490" value="" style="endArrow=classic;html=1;rounded=0;entryX=0.318;entryY=1.004;entryDx=0;entryDy=0;entryPerimeter=0;" edge="1" parent="2rovBy-W9d4GmyHB49PC-443">
          <mxGeometry width="50" height="50" relative="1" as="geometry">
            <mxPoint x="300" y="430.84259204828174" as="sourcePoint" />
            <mxPoint x="302.1600000000003" y="297.02999999999975" as="targetPoint" />
            <Array as="points" />
          </mxGeometry>
        </mxCell>
        <mxCell id="2rovBy-W9d4GmyHB49PC-491" value="Персонал" style="edgeLabel;html=1;align=center;verticalAlign=middle;resizable=0;points=[];labelBackgroundColor=none;" vertex="1" connectable="0" parent="2rovBy-W9d4GmyHB49PC-490">
          <mxGeometry x="0.6688" y="2" relative="1" as="geometry">
            <mxPoint x="-29" y="78" as="offset" />
          </mxGeometry>
        </mxCell>
        <mxCell id="2rovBy-W9d4GmyHB49PC-492" value="" style="endArrow=classic;html=1;rounded=0;" edge="1" parent="2rovBy-W9d4GmyHB49PC-443">
          <mxGeometry width="50" height="50" relative="1" as="geometry">
            <mxPoint x="360" y="430" as="sourcePoint" />
            <mxPoint x="360" y="296.78785491740587" as="targetPoint" />
          </mxGeometry>
        </mxCell>
        <mxCell id="2rovBy-W9d4GmyHB49PC-493" value="&lt;div&gt;Комп&#39;ютер,&lt;/div&gt;&lt;div&gt;ПЗ&lt;br&gt;&lt;/div&gt;" style="edgeLabel;html=1;align=center;verticalAlign=middle;resizable=0;points=[];labelBackgroundColor=none;" vertex="1" connectable="0" parent="2rovBy-W9d4GmyHB49PC-492">
          <mxGeometry x="0.1993" y="1" relative="1" as="geometry">
            <mxPoint x="31" y="51" as="offset" />
          </mxGeometry>
        </mxCell>
        <mxCell id="2rovBy-W9d4GmyHB49PC-494" value="" style="endArrow=classic;html=1;rounded=0;" edge="1" parent="2rovBy-W9d4GmyHB49PC-443">
          <mxGeometry width="50" height="50" relative="1" as="geometry">
            <mxPoint x="600" y="326.23" as="sourcePoint" />
            <mxPoint x="680" y="327" as="targetPoint" />
          </mxGeometry>
        </mxCell>
        <mxCell id="2rovBy-W9d4GmyHB49PC-495" value="" style="endArrow=classic;html=1;rounded=1;entryX=0.446;entryY=-0.034;entryDx=0;entryDy=0;edgeStyle=orthogonalEdgeStyle;entryPerimeter=0;curved=0;" edge="1" parent="2rovBy-W9d4GmyHB49PC-443" target="2rovBy-W9d4GmyHB49PC-510">
          <mxGeometry width="50" height="50" relative="1" as="geometry">
            <mxPoint x="434" y="100.19595163913529" as="sourcePoint" />
            <mxPoint x="434" y="180.35271295044356" as="targetPoint" />
          </mxGeometry>
        </mxCell>
        <mxCell id="2rovBy-W9d4GmyHB49PC-496" value="&lt;br&gt;&lt;h3 id=&quot;30&quot; class=&quot;tc head_struct bmf bl_npa_show&quot;&gt;&lt;span&gt;&lt;span style=&quot;font-weight: normal;&quot;&gt;Положення&lt;/span&gt;&lt;br&gt;&lt;span style=&quot;font-weight: normal;&quot;&gt;про інвентаризацію активів&lt;/span&gt;&lt;/span&gt;&lt;/h3&gt;&lt;div&gt;&lt;br&gt;&lt;/div&gt;" style="edgeLabel;html=1;align=left;verticalAlign=middle;resizable=0;points=[];labelBackgroundColor=none;fontSize=10;fontStyle=0" vertex="1" connectable="0" parent="2rovBy-W9d4GmyHB49PC-495">
          <mxGeometry x="-0.0465" y="-2" relative="1" as="geometry">
            <mxPoint x="-22" y="-81" as="offset" />
          </mxGeometry>
        </mxCell>
        <mxCell id="2rovBy-W9d4GmyHB49PC-497" value="" style="endArrow=classic;html=1;rounded=1;entryX=0.651;entryY=0.022;entryDx=0;entryDy=0;edgeStyle=orthogonalEdgeStyle;entryPerimeter=0;exitX=0.767;exitY=0.869;exitDx=0;exitDy=0;exitPerimeter=0;curved=0;" edge="1" parent="2rovBy-W9d4GmyHB49PC-443" source="2rovBy-W9d4GmyHB49PC-513" target="2rovBy-W9d4GmyHB49PC-507">
          <mxGeometry width="50" height="50" relative="1" as="geometry">
            <mxPoint x="276" y="130" as="sourcePoint" />
            <mxPoint x="276" y="180.35271295044356" as="targetPoint" />
          </mxGeometry>
        </mxCell>
        <mxCell id="2rovBy-W9d4GmyHB49PC-498" value="" style="endArrow=classic;html=1;rounded=0;entryX=0.5;entryY=0;entryDx=0;entryDy=0;edgeStyle=orthogonalEdgeStyle;" edge="1" parent="2rovBy-W9d4GmyHB49PC-443" target="2rovBy-W9d4GmyHB49PC-503">
          <mxGeometry width="50" height="50" relative="1" as="geometry">
            <mxPoint x="173" y="140" as="sourcePoint" />
            <mxPoint x="327.24000000000024" y="178.90989124683998" as="targetPoint" />
          </mxGeometry>
        </mxCell>
        <mxCell id="2rovBy-W9d4GmyHB49PC-499" value="&lt;div&gt;Бюджетний&amp;nbsp;&lt;/div&gt;&lt;div&gt;кодекс України&lt;/div&gt;" style="text;html=1;align=center;verticalAlign=middle;resizable=0;points=[];autosize=1;strokeColor=none;fillColor=none;" vertex="1" parent="2rovBy-W9d4GmyHB49PC-443">
          <mxGeometry x="90" y="106.47956988615195" width="110" height="40" as="geometry" />
        </mxCell>
        <mxCell id="2rovBy-W9d4GmyHB49PC-500" value="" style="endArrow=classic;html=1;rounded=0;entryX=0.696;entryY=-0.011;entryDx=0;entryDy=0;entryPerimeter=0;exitX=0.469;exitY=0.888;exitDx=0;exitDy=0;exitPerimeter=0;" edge="1" parent="2rovBy-W9d4GmyHB49PC-443" source="2rovBy-W9d4GmyHB49PC-501">
          <mxGeometry width="50" height="50" relative="1" as="geometry">
            <mxPoint x="365" y="157.56" as="sourcePoint" />
            <mxPoint x="362.00000000000045" y="236.79000000000002" as="targetPoint" />
          </mxGeometry>
        </mxCell>
        <mxCell id="2rovBy-W9d4GmyHB49PC-501" value="Стандарти" style="text;html=1;align=center;verticalAlign=middle;resizable=0;points=[];autosize=1;strokeColor=none;fillColor=none;" vertex="1" parent="2rovBy-W9d4GmyHB49PC-443">
          <mxGeometry x="325" y="111.47855779593577" width="80" height="30" as="geometry" />
        </mxCell>
        <mxCell id="2rovBy-W9d4GmyHB49PC-502" style="edgeStyle=orthogonalEdgeStyle;rounded=1;orthogonalLoop=1;jettySize=auto;html=1;exitX=1;exitY=0.5;exitDx=0;exitDy=0;curved=0;" edge="1" parent="2rovBy-W9d4GmyHB49PC-443" source="2rovBy-W9d4GmyHB49PC-503" target="2rovBy-W9d4GmyHB49PC-507">
          <mxGeometry relative="1" as="geometry" />
        </mxCell>
        <mxCell id="2rovBy-W9d4GmyHB49PC-503" value="Перевірка наявністі і стану технічної документації на основні засоби" style="rounded=0;whiteSpace=wrap;html=1;fillColor=none;" vertex="1" parent="2rovBy-W9d4GmyHB49PC-443">
          <mxGeometry x="110" y="200" width="125" height="70" as="geometry" />
        </mxCell>
        <mxCell id="2rovBy-W9d4GmyHB49PC-504" value="" style="endArrow=classic;html=1;rounded=0;entryX=-0.015;entryY=0.862;entryDx=0;entryDy=0;entryPerimeter=0;" edge="1" parent="2rovBy-W9d4GmyHB49PC-443" target="2rovBy-W9d4GmyHB49PC-503">
          <mxGeometry width="50" height="50" relative="1" as="geometry">
            <mxPoint x="20" y="260" as="sourcePoint" />
            <mxPoint x="480" y="260" as="targetPoint" />
          </mxGeometry>
        </mxCell>
        <mxCell id="2rovBy-W9d4GmyHB49PC-505" style="edgeStyle=orthogonalEdgeStyle;rounded=1;orthogonalLoop=1;jettySize=auto;html=1;exitX=1;exitY=0.5;exitDx=0;exitDy=0;entryX=0;entryY=0.5;entryDx=0;entryDy=0;curved=0;" edge="1" parent="2rovBy-W9d4GmyHB49PC-443" source="2rovBy-W9d4GmyHB49PC-507" target="2rovBy-W9d4GmyHB49PC-510">
          <mxGeometry relative="1" as="geometry" />
        </mxCell>
        <mxCell id="2rovBy-W9d4GmyHB49PC-506" style="edgeStyle=orthogonalEdgeStyle;rounded=1;orthogonalLoop=1;jettySize=auto;html=1;entryX=0.636;entryY=0.022;entryDx=0;entryDy=0;entryPerimeter=0;curved=0;" edge="1" parent="2rovBy-W9d4GmyHB49PC-443" target="2rovBy-W9d4GmyHB49PC-510">
          <mxGeometry relative="1" as="geometry">
            <mxPoint x="320" y="160" as="sourcePoint" />
          </mxGeometry>
        </mxCell>
        <mxCell id="2rovBy-W9d4GmyHB49PC-507" value="складання інвентаризаційного опису" style="rounded=0;whiteSpace=wrap;html=1;fillColor=none;" vertex="1" parent="2rovBy-W9d4GmyHB49PC-443">
          <mxGeometry x="270" y="236.78999999999996" width="120" height="60" as="geometry" />
        </mxCell>
        <mxCell id="2rovBy-W9d4GmyHB49PC-508" value="" style="edgeStyle=entityRelationEdgeStyle;startArrow=none;endArrow=none;segment=10;curved=1;sourcePerimeterSpacing=0;targetPerimeterSpacing=0;rounded=0;strokeColor=none;" edge="1" parent="2rovBy-W9d4GmyHB49PC-443">
          <mxGeometry relative="1" as="geometry">
            <mxPoint x="240" y="234.78999999999996" as="sourcePoint" />
            <mxPoint x="270.33333333333303" y="214.77777777777783" as="targetPoint" />
          </mxGeometry>
        </mxCell>
        <mxCell id="2rovBy-W9d4GmyHB49PC-509" value="&lt;div&gt;Уточнена&amp;nbsp;&lt;/div&gt;&lt;div&gt;документація&lt;/div&gt;" style="text;html=1;align=center;verticalAlign=middle;resizable=0;points=[];autosize=1;strokeColor=none;fillColor=none;" vertex="1" parent="2rovBy-W9d4GmyHB49PC-443">
          <mxGeometry x="235" y="195.03" width="100" height="40" as="geometry" />
        </mxCell>
        <mxCell id="2rovBy-W9d4GmyHB49PC-510" value="Перевірка правильності присвоєння інвентарних номерів" style="rounded=0;whiteSpace=wrap;html=1;fillColor=#FFF9E6;" vertex="1" parent="2rovBy-W9d4GmyHB49PC-443">
          <mxGeometry x="430" y="296.79" width="170" height="60" as="geometry" />
        </mxCell>
        <mxCell id="2rovBy-W9d4GmyHB49PC-511" value="&lt;div&gt;Інвентаризаційний&lt;/div&gt;&lt;div&gt;опис&lt;/div&gt;" style="text;html=1;align=center;verticalAlign=middle;resizable=0;points=[];autosize=1;strokeColor=none;fillColor=none;" vertex="1" parent="2rovBy-W9d4GmyHB49PC-443">
          <mxGeometry x="390" y="236.78999999999996" width="120" height="40" as="geometry" />
        </mxCell>
        <mxCell id="2rovBy-W9d4GmyHB49PC-512" value="" style="endArrow=classic;html=1;rounded=1;entryX=0.5;entryY=1;entryDx=0;entryDy=0;edgeStyle=elbowEdgeStyle;curved=0;" edge="1" parent="2rovBy-W9d4GmyHB49PC-443" target="2rovBy-W9d4GmyHB49PC-503">
          <mxGeometry width="50" height="50" relative="1" as="geometry">
            <mxPoint x="300" y="370" as="sourcePoint" />
            <mxPoint x="190" y="320" as="targetPoint" />
            <Array as="points">
              <mxPoint x="173" y="330" />
            </Array>
          </mxGeometry>
        </mxCell>
        <mxCell id="2rovBy-W9d4GmyHB49PC-513" value="Інструкції" style="text;html=1;align=center;verticalAlign=middle;resizable=0;points=[];autosize=1;strokeColor=none;fillColor=none;" vertex="1" parent="2rovBy-W9d4GmyHB49PC-443">
          <mxGeometry x="265" y="99.99999999999999" width="70" height="30" as="geometry" />
        </mxCell>
        <mxCell id="2rovBy-W9d4GmyHB49PC-514" value="" style="rounded=0;whiteSpace=wrap;html=1;fillColor=#333333;" vertex="1" parent="2rovBy-W9d4GmyHB49PC-443">
          <mxGeometry x="638" y="30" width="38" height="20" as="geometry" />
        </mxCell>
        <mxCell id="2rovBy-W9d4GmyHB49PC-515" value="&lt;div&gt;Документація&lt;/div&gt;" style="text;html=1;align=center;verticalAlign=middle;whiteSpace=wrap;rounded=0;" vertex="1" parent="1">
          <mxGeometry x="930" y="596.0017008602273" width="170" height="30.058785491740586" as="geometry" />
        </mxCell>
        <mxCell id="2rovBy-W9d4GmyHB49PC-516" value="&lt;div&gt;Звіт про&amp;nbsp;&lt;/div&gt;&lt;div&gt;інвентаризацію&lt;/div&gt;" style="text;html=1;align=center;verticalAlign=middle;whiteSpace=wrap;rounded=0;" vertex="1" parent="1">
          <mxGeometry x="1520" y="620.0043070170279" width="170" height="30.058785491740586" as="geometry" />
        </mxCell>
        <mxCell id="2rovBy-W9d4GmyHB49PC-517" value="" style="endArrow=classic;html=1;rounded=1;entryX=0.5;entryY=1;entryDx=0;entryDy=0;edgeStyle=elbowEdgeStyle;elbow=vertical;curved=0;" edge="1" parent="1" target="2rovBy-W9d4GmyHB49PC-510">
          <mxGeometry width="50" height="50" relative="1" as="geometry">
            <mxPoint x="1250" y="710" as="sourcePoint" />
            <mxPoint x="1320" y="650" as="targetPoint" />
            <Array as="points">
              <mxPoint x="1360" y="710" />
            </Array>
          </mxGeometry>
        </mxCell>
        <mxCell id="2rovBy-W9d4GmyHB49PC-518" value="" style="endArrow=classic;html=1;rounded=1;edgeStyle=orthogonalEdgeStyle;entryX=0.75;entryY=1;entryDx=0;entryDy=0;curved=0;" edge="1" parent="1" target="2rovBy-W9d4GmyHB49PC-510">
          <mxGeometry width="50" height="50" relative="1" as="geometry">
            <mxPoint x="1310" y="750" as="sourcePoint" />
            <mxPoint x="1330" y="590" as="targetPoint" />
            <Array as="points">
              <mxPoint x="1508" y="751" />
            </Array>
          </mxGeometry>
        </mxCell>
        <mxCell id="2rovBy-W9d4GmyHB49PC-519" value="" style="endArrow=classic;html=1;rounded=1;edgeStyle=orthogonalEdgeStyle;entryX=0.75;entryY=1;entryDx=0;entryDy=0;curved=0;" edge="1" parent="1" target="2rovBy-W9d4GmyHB49PC-503">
          <mxGeometry width="50" height="50" relative="1" as="geometry">
            <mxPoint x="1310" y="670" as="sourcePoint" />
            <mxPoint x="1330" y="590" as="targetPoint" />
            <Array as="points">
              <mxPoint x="1154" y="670" />
            </Array>
          </mxGeometry>
        </mxCell>
        <mxCell id="2rovBy-W9d4GmyHB49PC-520" value="" style="endArrow=classic;html=1;rounded=1;edgeStyle=orthogonalEdgeStyle;entryX=0.856;entryY=0.005;entryDx=0;entryDy=0;entryPerimeter=0;curved=0;" edge="1" parent="1" target="2rovBy-W9d4GmyHB49PC-503">
          <mxGeometry width="50" height="50" relative="1" as="geometry">
            <mxPoint x="1384" y="504" as="sourcePoint" />
            <mxPoint x="1166.5" y="524.3500000000001" as="targetPoint" />
            <Array as="points">
              <mxPoint x="1167" y="505" />
            </Array>
          </mxGeometry>
        </mxCell>
        <mxCell id="2rovBy-W9d4GmyHB49PC-521" value="" style="endArrow=classic;html=1;rounded=1;edgeStyle=orthogonalEdgeStyle;curved=0;" edge="1" parent="1">
          <mxGeometry width="50" height="50" relative="1" as="geometry">
            <mxPoint x="1384" y="520" as="sourcePoint" />
            <mxPoint x="1322" y="564" as="targetPoint" />
            <Array as="points">
              <mxPoint x="1323" y="530" />
              <mxPoint x="1323" y="564" />
            </Array>
          </mxGeometry>
        </mxCell>
        <mxCell id="2rovBy-W9d4GmyHB49PC-522" value="" style="group;fillColor=#FFF9E6;" vertex="1" connectable="0" parent="1">
          <mxGeometry x="1840" y="330" width="720" height="511.33" as="geometry" />
        </mxCell>
        <mxCell id="2rovBy-W9d4GmyHB49PC-523" value="" style="shape=table;startSize=0;container=1;collapsible=0;childLayout=tableLayout;fillColor=#fff9e6;strokeColor=#919191;" vertex="1" parent="2rovBy-W9d4GmyHB49PC-522">
          <mxGeometry x="-8" width="710" height="510.32999999999987" as="geometry" />
        </mxCell>
        <mxCell id="2rovBy-W9d4GmyHB49PC-524" value="" style="shape=tableRow;horizontal=0;startSize=0;swimlaneHead=0;swimlaneBody=0;strokeColor=inherit;top=0;left=0;bottom=0;right=0;collapsible=0;dropTarget=0;fillColor=none;points=[[0,0.5],[1,0.5]];portConstraint=eastwest;" vertex="1" parent="2rovBy-W9d4GmyHB49PC-523">
          <mxGeometry width="710" height="20" as="geometry" />
        </mxCell>
        <mxCell id="2rovBy-W9d4GmyHB49PC-525" value="&lt;div align=&quot;left&quot; style=&quot;margin-top: 0px; padding-right: 0px;&quot;&gt;USED AT:&lt;/div&gt;&lt;div align=&quot;left&quot; style=&quot;margin-top: 0px; padding-right: 0px;&quot;&gt;&lt;br&gt;&lt;/div&gt;&lt;div align=&quot;left&quot; style=&quot;margin-top: 0px; padding-right: 0px;&quot;&gt;&lt;br&gt;&lt;/div&gt;&lt;div align=&quot;left&quot; style=&quot;margin-top: 0px; padding-right: 0px;&quot;&gt;&lt;br&gt;&lt;/div&gt;&lt;div align=&quot;left&quot; style=&quot;margin-top: 0px; padding-right: 0px;&quot;&gt;&lt;br&gt;&lt;/div&gt;" style="shape=partialRectangle;html=1;whiteSpace=wrap;connectable=0;strokeColor=inherit;overflow=hidden;fillColor=none;top=0;left=0;bottom=0;right=0;pointerEvents=1;rowspan=4;colspan=1;align=left;" vertex="1" parent="2rovBy-W9d4GmyHB49PC-524">
          <mxGeometry width="90" height="80" as="geometry">
            <mxRectangle width="90" height="20" as="alternateBounds" />
          </mxGeometry>
        </mxCell>
        <mxCell id="2rovBy-W9d4GmyHB49PC-526" value="&lt;div align=&quot;left&quot;&gt;AUTHOR: Elvira&lt;span style=&quot;white-space: pre;&quot;&gt;&#x9;&lt;/span&gt;&lt;span style=&quot;white-space: pre;&quot;&gt;&#x9;&lt;/span&gt;&lt;span style=&quot;white-space: pre;&quot;&gt;&#x9;&lt;/span&gt;DATE: 16.12.2024&lt;br&gt;&lt;/div&gt;&lt;div align=&quot;left&quot;&gt;PROJECT: Practic7&lt;span style=&quot;white-space: pre;&quot;&gt;&#x9;&lt;/span&gt;&lt;span style=&quot;white-space: pre;&quot;&gt;&#x9;&lt;/span&gt;REV:&amp;nbsp;&amp;nbsp; 20.12.2024&lt;br&gt;&lt;/div&gt;&lt;div align=&quot;left&quot;&gt;&lt;br&gt;&lt;/div&gt;&lt;div align=&quot;left&quot;&gt;&lt;br&gt;&lt;/div&gt;&lt;div align=&quot;left&quot;&gt;NOTES: 1 2 3 4 5 6 7 8 9 10&lt;br&gt;&lt;/div&gt;" style="shape=partialRectangle;html=1;whiteSpace=wrap;connectable=0;strokeColor=inherit;overflow=hidden;fillColor=none;top=0;left=0;bottom=0;right=0;pointerEvents=1;rowspan=4;colspan=1;align=left;" vertex="1" parent="2rovBy-W9d4GmyHB49PC-524">
          <mxGeometry x="90" width="260" height="80" as="geometry">
            <mxRectangle width="260" height="20" as="alternateBounds" />
          </mxGeometry>
        </mxCell>
        <mxCell id="2rovBy-W9d4GmyHB49PC-527" value="" style="shape=partialRectangle;html=1;whiteSpace=wrap;connectable=0;strokeColor=inherit;overflow=hidden;fillColor=#333333;top=0;left=0;bottom=0;right=0;pointerEvents=1;" vertex="1" parent="2rovBy-W9d4GmyHB49PC-524">
          <mxGeometry x="350" width="30" height="20" as="geometry">
            <mxRectangle width="30" height="20" as="alternateBounds" />
          </mxGeometry>
        </mxCell>
        <mxCell id="2rovBy-W9d4GmyHB49PC-528" value="WORKING" style="shape=partialRectangle;html=1;whiteSpace=wrap;connectable=0;strokeColor=inherit;overflow=hidden;fillColor=none;top=0;left=0;bottom=0;right=0;pointerEvents=1;align=left;" vertex="1" parent="2rovBy-W9d4GmyHB49PC-524">
          <mxGeometry x="380" width="120" height="20" as="geometry">
            <mxRectangle width="120" height="20" as="alternateBounds" />
          </mxGeometry>
        </mxCell>
        <mxCell id="2rovBy-W9d4GmyHB49PC-529" value="&lt;div align=&quot;left&quot;&gt;READER&lt;span style=&quot;white-space: pre;&quot;&gt;&#x9;&lt;/span&gt;DATE&lt;/div&gt;" style="shape=partialRectangle;html=1;whiteSpace=wrap;connectable=0;strokeColor=inherit;overflow=hidden;fillColor=none;top=0;left=0;bottom=0;right=0;pointerEvents=1;align=left;" vertex="1" parent="2rovBy-W9d4GmyHB49PC-524">
          <mxGeometry x="500" width="120" height="20" as="geometry">
            <mxRectangle width="120" height="20" as="alternateBounds" />
          </mxGeometry>
        </mxCell>
        <mxCell id="2rovBy-W9d4GmyHB49PC-530" value="&lt;div align=&quot;left&quot;&gt;CONTENT:&lt;/div&gt;&lt;div align=&quot;left&quot;&gt;&lt;b&gt;&lt;font style=&quot;font-size: 18px;&quot;&gt;&lt;br&gt;&lt;/font&gt;&lt;/b&gt;&lt;/div&gt;&lt;div align=&quot;left&quot;&gt;&lt;b&gt;&lt;font style=&quot;font-size: 18px;&quot;&gt;&lt;span style=&quot;white-space: pre;&quot;&gt;&#x9;&lt;/span&gt;&lt;/font&gt;&lt;/b&gt;&lt;/div&gt;&lt;div align=&quot;left&quot;&gt;A0&lt;br&gt;&lt;/div&gt;&lt;div align=&quot;left&quot;&gt;&lt;br&gt;&lt;/div&gt;&lt;div align=&quot;left&quot;&gt;&lt;br&gt;&lt;/div&gt;" style="shape=partialRectangle;html=1;whiteSpace=wrap;connectable=0;strokeColor=inherit;overflow=hidden;fillColor=none;top=0;left=0;bottom=0;right=0;pointerEvents=1;rowspan=4;colspan=1;align=left;" vertex="1" parent="2rovBy-W9d4GmyHB49PC-524">
          <mxGeometry x="620" width="90" height="80" as="geometry">
            <mxRectangle width="90" height="20" as="alternateBounds" />
          </mxGeometry>
        </mxCell>
        <mxCell id="2rovBy-W9d4GmyHB49PC-531" value="" style="shape=tableRow;horizontal=0;startSize=0;swimlaneHead=0;swimlaneBody=0;strokeColor=inherit;top=0;left=0;bottom=0;right=0;collapsible=0;dropTarget=0;fillColor=none;points=[[0,0.5],[1,0.5]];portConstraint=eastwest;" vertex="1" parent="2rovBy-W9d4GmyHB49PC-523">
          <mxGeometry y="20" width="710" height="20" as="geometry" />
        </mxCell>
        <mxCell id="2rovBy-W9d4GmyHB49PC-532" value="" style="shape=partialRectangle;html=1;whiteSpace=wrap;connectable=0;strokeColor=inherit;overflow=hidden;fillColor=none;top=0;left=0;bottom=0;right=0;pointerEvents=1;" vertex="1" visible="0" parent="2rovBy-W9d4GmyHB49PC-531">
          <mxGeometry width="90" height="20" as="geometry">
            <mxRectangle width="90" height="20" as="alternateBounds" />
          </mxGeometry>
        </mxCell>
        <mxCell id="2rovBy-W9d4GmyHB49PC-533" value="" style="shape=partialRectangle;html=1;whiteSpace=wrap;connectable=0;strokeColor=inherit;overflow=hidden;fillColor=none;top=0;left=0;bottom=0;right=0;pointerEvents=1;" vertex="1" visible="0" parent="2rovBy-W9d4GmyHB49PC-531">
          <mxGeometry x="90" width="260" height="20" as="geometry">
            <mxRectangle width="260" height="20" as="alternateBounds" />
          </mxGeometry>
        </mxCell>
        <mxCell id="2rovBy-W9d4GmyHB49PC-534" value="" style="shape=partialRectangle;html=1;whiteSpace=wrap;connectable=0;strokeColor=inherit;overflow=hidden;fillColor=none;top=0;left=0;bottom=0;right=0;pointerEvents=1;" vertex="1" parent="2rovBy-W9d4GmyHB49PC-531">
          <mxGeometry x="350" width="30" height="20" as="geometry">
            <mxRectangle width="30" height="20" as="alternateBounds" />
          </mxGeometry>
        </mxCell>
        <mxCell id="2rovBy-W9d4GmyHB49PC-535" value="DRAFT" style="shape=partialRectangle;html=1;whiteSpace=wrap;connectable=0;strokeColor=inherit;overflow=hidden;fillColor=none;top=0;left=0;bottom=0;right=0;pointerEvents=1;align=left;" vertex="1" parent="2rovBy-W9d4GmyHB49PC-531">
          <mxGeometry x="380" width="120" height="20" as="geometry">
            <mxRectangle width="120" height="20" as="alternateBounds" />
          </mxGeometry>
        </mxCell>
        <mxCell id="2rovBy-W9d4GmyHB49PC-536" value="" style="shape=partialRectangle;html=1;whiteSpace=wrap;connectable=0;strokeColor=inherit;overflow=hidden;fillColor=none;top=0;left=0;bottom=0;right=0;pointerEvents=1;" vertex="1" parent="2rovBy-W9d4GmyHB49PC-531">
          <mxGeometry x="500" width="120" height="20" as="geometry">
            <mxRectangle width="120" height="20" as="alternateBounds" />
          </mxGeometry>
        </mxCell>
        <mxCell id="2rovBy-W9d4GmyHB49PC-537" value="" style="shape=partialRectangle;html=1;whiteSpace=wrap;connectable=0;strokeColor=inherit;overflow=hidden;fillColor=none;top=0;left=0;bottom=0;right=0;pointerEvents=1;" vertex="1" visible="0" parent="2rovBy-W9d4GmyHB49PC-531">
          <mxGeometry x="620" width="90" height="20" as="geometry">
            <mxRectangle width="90" height="20" as="alternateBounds" />
          </mxGeometry>
        </mxCell>
        <mxCell id="2rovBy-W9d4GmyHB49PC-538" value="" style="shape=tableRow;horizontal=0;startSize=0;swimlaneHead=0;swimlaneBody=0;strokeColor=inherit;top=0;left=0;bottom=0;right=0;collapsible=0;dropTarget=0;fillColor=none;points=[[0,0.5],[1,0.5]];portConstraint=eastwest;" vertex="1" parent="2rovBy-W9d4GmyHB49PC-523">
          <mxGeometry y="40" width="710" height="20" as="geometry" />
        </mxCell>
        <mxCell id="2rovBy-W9d4GmyHB49PC-539" value="" style="shape=partialRectangle;html=1;whiteSpace=wrap;connectable=0;strokeColor=inherit;overflow=hidden;fillColor=none;top=0;left=0;bottom=0;right=0;pointerEvents=1;" vertex="1" visible="0" parent="2rovBy-W9d4GmyHB49PC-538">
          <mxGeometry width="90" height="20" as="geometry">
            <mxRectangle width="90" height="20" as="alternateBounds" />
          </mxGeometry>
        </mxCell>
        <mxCell id="2rovBy-W9d4GmyHB49PC-540" value="" style="shape=partialRectangle;html=1;whiteSpace=wrap;connectable=0;strokeColor=inherit;overflow=hidden;fillColor=none;top=0;left=0;bottom=0;right=0;pointerEvents=1;" vertex="1" visible="0" parent="2rovBy-W9d4GmyHB49PC-538">
          <mxGeometry x="90" width="260" height="20" as="geometry">
            <mxRectangle width="260" height="20" as="alternateBounds" />
          </mxGeometry>
        </mxCell>
        <mxCell id="2rovBy-W9d4GmyHB49PC-541" value="" style="shape=partialRectangle;html=1;whiteSpace=wrap;connectable=0;strokeColor=inherit;overflow=hidden;fillColor=none;top=0;left=0;bottom=0;right=0;pointerEvents=1;" vertex="1" parent="2rovBy-W9d4GmyHB49PC-538">
          <mxGeometry x="350" width="30" height="20" as="geometry">
            <mxRectangle width="30" height="20" as="alternateBounds" />
          </mxGeometry>
        </mxCell>
        <mxCell id="2rovBy-W9d4GmyHB49PC-542" value="RECOMMENDED" style="shape=partialRectangle;html=1;whiteSpace=wrap;connectable=0;strokeColor=inherit;overflow=hidden;fillColor=none;top=0;left=0;bottom=0;right=0;pointerEvents=1;align=left;" vertex="1" parent="2rovBy-W9d4GmyHB49PC-538">
          <mxGeometry x="380" width="120" height="20" as="geometry">
            <mxRectangle width="120" height="20" as="alternateBounds" />
          </mxGeometry>
        </mxCell>
        <mxCell id="2rovBy-W9d4GmyHB49PC-543" value="" style="shape=partialRectangle;html=1;whiteSpace=wrap;connectable=0;strokeColor=inherit;overflow=hidden;fillColor=none;top=0;left=0;bottom=0;right=0;pointerEvents=1;" vertex="1" parent="2rovBy-W9d4GmyHB49PC-538">
          <mxGeometry x="500" width="120" height="20" as="geometry">
            <mxRectangle width="120" height="20" as="alternateBounds" />
          </mxGeometry>
        </mxCell>
        <mxCell id="2rovBy-W9d4GmyHB49PC-544" value="" style="shape=partialRectangle;html=1;whiteSpace=wrap;connectable=0;strokeColor=inherit;overflow=hidden;fillColor=none;top=0;left=0;bottom=0;right=0;pointerEvents=1;" vertex="1" visible="0" parent="2rovBy-W9d4GmyHB49PC-538">
          <mxGeometry x="620" width="90" height="20" as="geometry">
            <mxRectangle width="90" height="20" as="alternateBounds" />
          </mxGeometry>
        </mxCell>
        <mxCell id="2rovBy-W9d4GmyHB49PC-545" value="" style="shape=tableRow;horizontal=0;startSize=0;swimlaneHead=0;swimlaneBody=0;strokeColor=inherit;top=0;left=0;bottom=0;right=0;collapsible=0;dropTarget=0;fillColor=none;points=[[0,0.5],[1,0.5]];portConstraint=eastwest;" vertex="1" parent="2rovBy-W9d4GmyHB49PC-523">
          <mxGeometry y="60" width="710" height="20" as="geometry" />
        </mxCell>
        <mxCell id="2rovBy-W9d4GmyHB49PC-546" value="" style="shape=partialRectangle;html=1;whiteSpace=wrap;connectable=0;strokeColor=inherit;overflow=hidden;fillColor=none;top=0;left=0;bottom=0;right=0;pointerEvents=1;" vertex="1" visible="0" parent="2rovBy-W9d4GmyHB49PC-545">
          <mxGeometry width="90" height="20" as="geometry">
            <mxRectangle width="90" height="20" as="alternateBounds" />
          </mxGeometry>
        </mxCell>
        <mxCell id="2rovBy-W9d4GmyHB49PC-547" value="" style="shape=partialRectangle;html=1;whiteSpace=wrap;connectable=0;strokeColor=inherit;overflow=hidden;fillColor=none;top=0;left=0;bottom=0;right=0;pointerEvents=1;" vertex="1" visible="0" parent="2rovBy-W9d4GmyHB49PC-545">
          <mxGeometry x="90" width="260" height="20" as="geometry">
            <mxRectangle width="260" height="20" as="alternateBounds" />
          </mxGeometry>
        </mxCell>
        <mxCell id="2rovBy-W9d4GmyHB49PC-548" value="" style="shape=partialRectangle;html=1;whiteSpace=wrap;connectable=0;strokeColor=inherit;overflow=hidden;fillColor=none;top=0;left=0;bottom=0;right=0;pointerEvents=1;" vertex="1" parent="2rovBy-W9d4GmyHB49PC-545">
          <mxGeometry x="350" width="30" height="20" as="geometry">
            <mxRectangle width="30" height="20" as="alternateBounds" />
          </mxGeometry>
        </mxCell>
        <mxCell id="2rovBy-W9d4GmyHB49PC-549" value="&lt;div align=&quot;left&quot;&gt;PUBLICATION&lt;/div&gt;" style="shape=partialRectangle;html=1;whiteSpace=wrap;connectable=0;strokeColor=inherit;overflow=hidden;fillColor=none;top=0;left=0;bottom=0;right=0;pointerEvents=1;align=left;" vertex="1" parent="2rovBy-W9d4GmyHB49PC-545">
          <mxGeometry x="380" width="120" height="20" as="geometry">
            <mxRectangle width="120" height="20" as="alternateBounds" />
          </mxGeometry>
        </mxCell>
        <mxCell id="2rovBy-W9d4GmyHB49PC-550" value="" style="shape=partialRectangle;html=1;whiteSpace=wrap;connectable=0;strokeColor=inherit;overflow=hidden;fillColor=none;top=0;left=0;bottom=0;right=0;pointerEvents=1;" vertex="1" parent="2rovBy-W9d4GmyHB49PC-545">
          <mxGeometry x="500" width="120" height="20" as="geometry">
            <mxRectangle width="120" height="20" as="alternateBounds" />
          </mxGeometry>
        </mxCell>
        <mxCell id="2rovBy-W9d4GmyHB49PC-551" value="" style="shape=partialRectangle;html=1;whiteSpace=wrap;connectable=0;strokeColor=inherit;overflow=hidden;fillColor=none;top=0;left=0;bottom=0;right=0;pointerEvents=1;" vertex="1" visible="0" parent="2rovBy-W9d4GmyHB49PC-545">
          <mxGeometry x="620" width="90" height="20" as="geometry">
            <mxRectangle width="90" height="20" as="alternateBounds" />
          </mxGeometry>
        </mxCell>
        <mxCell id="2rovBy-W9d4GmyHB49PC-552" value="" style="shape=tableRow;horizontal=0;startSize=0;swimlaneHead=0;swimlaneBody=0;strokeColor=inherit;top=0;left=0;bottom=0;right=0;collapsible=0;dropTarget=0;fillColor=none;points=[[0,0.5],[1,0.5]];portConstraint=eastwest;" vertex="1" parent="2rovBy-W9d4GmyHB49PC-523">
          <mxGeometry y="80" width="710" height="380" as="geometry" />
        </mxCell>
        <mxCell id="2rovBy-W9d4GmyHB49PC-553" value="" style="shape=partialRectangle;html=1;whiteSpace=wrap;connectable=0;strokeColor=inherit;overflow=hidden;fillColor=none;top=0;left=0;bottom=0;right=0;pointerEvents=1;rowspan=1;colspan=6;" vertex="1" parent="2rovBy-W9d4GmyHB49PC-552">
          <mxGeometry width="710" height="380" as="geometry">
            <mxRectangle width="90" height="380" as="alternateBounds" />
          </mxGeometry>
        </mxCell>
        <mxCell id="2rovBy-W9d4GmyHB49PC-554" value="" style="shape=partialRectangle;html=1;whiteSpace=wrap;connectable=0;strokeColor=inherit;overflow=hidden;fillColor=none;top=0;left=0;bottom=0;right=0;pointerEvents=1;" vertex="1" visible="0" parent="2rovBy-W9d4GmyHB49PC-552">
          <mxGeometry x="90" width="260" height="380" as="geometry">
            <mxRectangle width="260" height="380" as="alternateBounds" />
          </mxGeometry>
        </mxCell>
        <mxCell id="2rovBy-W9d4GmyHB49PC-555" value="" style="shape=partialRectangle;html=1;whiteSpace=wrap;connectable=0;strokeColor=inherit;overflow=hidden;fillColor=none;top=0;left=0;bottom=0;right=0;pointerEvents=1;" vertex="1" visible="0" parent="2rovBy-W9d4GmyHB49PC-552">
          <mxGeometry x="350" width="30" height="380" as="geometry">
            <mxRectangle width="30" height="380" as="alternateBounds" />
          </mxGeometry>
        </mxCell>
        <mxCell id="2rovBy-W9d4GmyHB49PC-556" value="" style="shape=partialRectangle;html=1;whiteSpace=wrap;connectable=0;strokeColor=inherit;overflow=hidden;fillColor=none;top=0;left=0;bottom=0;right=0;pointerEvents=1;" vertex="1" visible="0" parent="2rovBy-W9d4GmyHB49PC-552">
          <mxGeometry x="380" width="120" height="380" as="geometry">
            <mxRectangle width="120" height="380" as="alternateBounds" />
          </mxGeometry>
        </mxCell>
        <mxCell id="2rovBy-W9d4GmyHB49PC-557" value="" style="shape=partialRectangle;html=1;whiteSpace=wrap;connectable=0;strokeColor=inherit;overflow=hidden;fillColor=none;top=0;left=0;bottom=0;right=0;pointerEvents=1;" vertex="1" visible="0" parent="2rovBy-W9d4GmyHB49PC-552">
          <mxGeometry x="500" width="120" height="380" as="geometry">
            <mxRectangle width="120" height="380" as="alternateBounds" />
          </mxGeometry>
        </mxCell>
        <mxCell id="2rovBy-W9d4GmyHB49PC-558" value="" style="shape=partialRectangle;html=1;whiteSpace=wrap;connectable=0;strokeColor=inherit;overflow=hidden;fillColor=none;top=0;left=0;bottom=0;right=0;pointerEvents=1;" vertex="1" visible="0" parent="2rovBy-W9d4GmyHB49PC-552">
          <mxGeometry x="620" width="90" height="380" as="geometry">
            <mxRectangle width="90" height="380" as="alternateBounds" />
          </mxGeometry>
        </mxCell>
        <mxCell id="2rovBy-W9d4GmyHB49PC-559" value="" style="shape=tableRow;horizontal=0;startSize=0;swimlaneHead=0;swimlaneBody=0;strokeColor=inherit;top=0;left=0;bottom=0;right=0;collapsible=0;dropTarget=0;fillColor=none;points=[[0,0.5],[1,0.5]];portConstraint=eastwest;" vertex="1" parent="2rovBy-W9d4GmyHB49PC-523">
          <mxGeometry y="460" width="710" height="50" as="geometry" />
        </mxCell>
        <mxCell id="2rovBy-W9d4GmyHB49PC-560" value="&lt;div align=&quot;left&quot;&gt;NODE:&lt;/div&gt;&lt;div align=&quot;left&quot;&gt;&lt;span style=&quot;white-space: pre;&quot;&gt;&#x9;&lt;/span&gt;&lt;span style=&quot;white-space: pre;&quot;&gt;&#x9;&lt;/span&gt;&lt;font style=&quot;font-size: 17px;&quot;&gt;A2&lt;/font&gt;&lt;br&gt;&lt;/div&gt;" style="shape=partialRectangle;html=1;whiteSpace=wrap;connectable=0;strokeColor=inherit;overflow=hidden;fillColor=none;top=0;left=0;bottom=0;right=0;pointerEvents=1;align=left;" vertex="1" parent="2rovBy-W9d4GmyHB49PC-559">
          <mxGeometry width="90" height="50" as="geometry">
            <mxRectangle width="90" height="50" as="alternateBounds" />
          </mxGeometry>
        </mxCell>
        <mxCell id="2rovBy-W9d4GmyHB49PC-561" value="&lt;div&gt;TITLE:&lt;/div&gt;&lt;div&gt;&lt;span style=&quot;white-space: pre;&quot;&gt;&#x9;&lt;/span&gt;&lt;span style=&quot;white-space: pre;&quot;&gt;&#x9;&lt;/span&gt;&lt;font style=&quot;font-size: 18px;&quot;&gt;Складання інвентаризаційного опису&lt;/font&gt;&lt;/div&gt;" style="shape=partialRectangle;html=1;whiteSpace=wrap;connectable=0;strokeColor=inherit;overflow=hidden;fillColor=none;top=0;left=0;bottom=0;right=0;pointerEvents=1;rowspan=1;colspan=3;align=left;" vertex="1" parent="2rovBy-W9d4GmyHB49PC-559">
          <mxGeometry x="90" width="410" height="50" as="geometry">
            <mxRectangle width="260" height="50" as="alternateBounds" />
          </mxGeometry>
        </mxCell>
        <mxCell id="2rovBy-W9d4GmyHB49PC-562" value="" style="shape=partialRectangle;html=1;whiteSpace=wrap;connectable=0;strokeColor=inherit;overflow=hidden;fillColor=none;top=0;left=0;bottom=0;right=0;pointerEvents=1;" vertex="1" visible="0" parent="2rovBy-W9d4GmyHB49PC-559">
          <mxGeometry x="350" width="30" height="50" as="geometry">
            <mxRectangle width="30" height="50" as="alternateBounds" />
          </mxGeometry>
        </mxCell>
        <mxCell id="2rovBy-W9d4GmyHB49PC-563" value="" style="shape=partialRectangle;html=1;whiteSpace=wrap;connectable=0;strokeColor=inherit;overflow=hidden;fillColor=none;top=0;left=0;bottom=0;right=0;pointerEvents=1;" vertex="1" visible="0" parent="2rovBy-W9d4GmyHB49PC-559">
          <mxGeometry x="380" width="120" height="50" as="geometry">
            <mxRectangle width="120" height="50" as="alternateBounds" />
          </mxGeometry>
        </mxCell>
        <mxCell id="2rovBy-W9d4GmyHB49PC-564" value="&lt;div&gt;NUMBER:&lt;/div&gt;&lt;div&gt;&lt;br&gt;&lt;/div&gt;" style="shape=partialRectangle;html=1;whiteSpace=wrap;connectable=0;strokeColor=inherit;overflow=hidden;fillColor=none;top=0;left=0;bottom=0;right=0;pointerEvents=1;rowspan=1;colspan=2;align=left;" vertex="1" parent="2rovBy-W9d4GmyHB49PC-559">
          <mxGeometry x="500" width="210" height="50" as="geometry">
            <mxRectangle width="120" height="50" as="alternateBounds" />
          </mxGeometry>
        </mxCell>
        <mxCell id="2rovBy-W9d4GmyHB49PC-565" value="" style="shape=partialRectangle;html=1;whiteSpace=wrap;connectable=0;strokeColor=inherit;overflow=hidden;fillColor=none;top=0;left=0;bottom=0;right=0;pointerEvents=1;" vertex="1" visible="0" parent="2rovBy-W9d4GmyHB49PC-559">
          <mxGeometry x="620" width="90" height="50" as="geometry">
            <mxRectangle width="90" height="50" as="alternateBounds" />
          </mxGeometry>
        </mxCell>
        <mxCell id="2rovBy-W9d4GmyHB49PC-566" value="" style="rounded=0;whiteSpace=wrap;html=1;fillColor=#FFF9E6;strokeColor=#919191;" vertex="1" parent="2rovBy-W9d4GmyHB49PC-522">
          <mxGeometry x="642" y="489.9601630317629" width="60" height="20.3698369682362" as="geometry" />
        </mxCell>
        <mxCell id="2rovBy-W9d4GmyHB49PC-567" value="" style="endArrow=classic;html=1;rounded=0;" edge="1" parent="2rovBy-W9d4GmyHB49PC-522">
          <mxGeometry width="50" height="50" relative="1" as="geometry">
            <mxPoint x="20" y="240.4702839339247" as="sourcePoint" />
            <mxPoint x="110" y="240" as="targetPoint" />
          </mxGeometry>
        </mxCell>
        <mxCell id="2rovBy-W9d4GmyHB49PC-568" value="" style="endArrow=classic;html=1;rounded=0;entryX=0.318;entryY=1.004;entryDx=0;entryDy=0;entryPerimeter=0;" edge="1" parent="2rovBy-W9d4GmyHB49PC-522">
          <mxGeometry width="50" height="50" relative="1" as="geometry">
            <mxPoint x="300" y="430.84259204828174" as="sourcePoint" />
            <mxPoint x="302.1600000000003" y="297.02999999999975" as="targetPoint" />
            <Array as="points" />
          </mxGeometry>
        </mxCell>
        <mxCell id="2rovBy-W9d4GmyHB49PC-569" value="Персонал" style="edgeLabel;html=1;align=center;verticalAlign=middle;resizable=0;points=[];labelBackgroundColor=none;" vertex="1" connectable="0" parent="2rovBy-W9d4GmyHB49PC-568">
          <mxGeometry x="0.6688" y="2" relative="1" as="geometry">
            <mxPoint x="-29" y="78" as="offset" />
          </mxGeometry>
        </mxCell>
        <mxCell id="2rovBy-W9d4GmyHB49PC-570" value="" style="endArrow=classic;html=1;rounded=0;" edge="1" parent="2rovBy-W9d4GmyHB49PC-522">
          <mxGeometry width="50" height="50" relative="1" as="geometry">
            <mxPoint x="360" y="430" as="sourcePoint" />
            <mxPoint x="360" y="296.78785491740587" as="targetPoint" />
          </mxGeometry>
        </mxCell>
        <mxCell id="2rovBy-W9d4GmyHB49PC-571" value="&lt;div&gt;Комп&#39;ютер,&lt;/div&gt;&lt;div&gt;ПЗ&lt;br&gt;&lt;/div&gt;" style="edgeLabel;html=1;align=center;verticalAlign=middle;resizable=0;points=[];labelBackgroundColor=none;" vertex="1" connectable="0" parent="2rovBy-W9d4GmyHB49PC-570">
          <mxGeometry x="0.1993" y="1" relative="1" as="geometry">
            <mxPoint x="31" y="51" as="offset" />
          </mxGeometry>
        </mxCell>
        <mxCell id="2rovBy-W9d4GmyHB49PC-572" value="" style="endArrow=classic;html=1;rounded=0;" edge="1" parent="2rovBy-W9d4GmyHB49PC-522">
          <mxGeometry width="50" height="50" relative="1" as="geometry">
            <mxPoint x="600" y="326.23" as="sourcePoint" />
            <mxPoint x="680" y="327" as="targetPoint" />
          </mxGeometry>
        </mxCell>
        <mxCell id="2rovBy-W9d4GmyHB49PC-573" value="" style="endArrow=classic;html=1;rounded=1;entryX=0.446;entryY=-0.034;entryDx=0;entryDy=0;edgeStyle=orthogonalEdgeStyle;entryPerimeter=0;curved=0;" edge="1" parent="2rovBy-W9d4GmyHB49PC-522" target="2rovBy-W9d4GmyHB49PC-585">
          <mxGeometry width="50" height="50" relative="1" as="geometry">
            <mxPoint x="434" y="100.19595163913529" as="sourcePoint" />
            <mxPoint x="434" y="180.35271295044356" as="targetPoint" />
          </mxGeometry>
        </mxCell>
        <mxCell id="2rovBy-W9d4GmyHB49PC-574" value="&lt;br&gt;&lt;h3 id=&quot;30&quot; class=&quot;tc head_struct bmf bl_npa_show&quot;&gt;&lt;span&gt;&lt;span style=&quot;font-weight: normal;&quot;&gt;Положення&lt;/span&gt;&lt;br&gt;&lt;span style=&quot;font-weight: normal;&quot;&gt;про інвентаризацію активів&lt;/span&gt;&lt;/span&gt;&lt;/h3&gt;&lt;div&gt;&lt;br&gt;&lt;/div&gt;" style="edgeLabel;html=1;align=left;verticalAlign=middle;resizable=0;points=[];labelBackgroundColor=none;fontSize=10;fontStyle=0" vertex="1" connectable="0" parent="2rovBy-W9d4GmyHB49PC-573">
          <mxGeometry x="-0.0465" y="-2" relative="1" as="geometry">
            <mxPoint x="-22" y="-81" as="offset" />
          </mxGeometry>
        </mxCell>
        <mxCell id="2rovBy-W9d4GmyHB49PC-575" value="" style="endArrow=classic;html=1;rounded=1;entryX=0.651;entryY=0.022;entryDx=0;entryDy=0;edgeStyle=orthogonalEdgeStyle;entryPerimeter=0;exitX=0.767;exitY=0.869;exitDx=0;exitDy=0;exitPerimeter=0;curved=0;" edge="1" parent="2rovBy-W9d4GmyHB49PC-522" source="2rovBy-W9d4GmyHB49PC-587" target="2rovBy-W9d4GmyHB49PC-582">
          <mxGeometry width="50" height="50" relative="1" as="geometry">
            <mxPoint x="276" y="130" as="sourcePoint" />
            <mxPoint x="276" y="180.35271295044356" as="targetPoint" />
          </mxGeometry>
        </mxCell>
        <mxCell id="2rovBy-W9d4GmyHB49PC-576" value="" style="endArrow=classic;html=1;rounded=0;entryX=0.696;entryY=-0.011;entryDx=0;entryDy=0;entryPerimeter=0;" edge="1" parent="2rovBy-W9d4GmyHB49PC-522">
          <mxGeometry width="50" height="50" relative="1" as="geometry">
            <mxPoint x="160" y="120" as="sourcePoint" />
            <mxPoint x="160.00000000000045" y="200.00000000000003" as="targetPoint" />
          </mxGeometry>
        </mxCell>
        <mxCell id="2rovBy-W9d4GmyHB49PC-577" value="Стандарти" style="text;html=1;align=center;verticalAlign=middle;resizable=0;points=[];autosize=1;strokeColor=none;fillColor=none;" vertex="1" parent="2rovBy-W9d4GmyHB49PC-522">
          <mxGeometry x="120" y="89.99855779593577" width="80" height="30" as="geometry" />
        </mxCell>
        <mxCell id="2rovBy-W9d4GmyHB49PC-578" style="edgeStyle=orthogonalEdgeStyle;rounded=1;orthogonalLoop=1;jettySize=auto;html=1;exitX=1;exitY=0.5;exitDx=0;exitDy=0;curved=0;" edge="1" parent="2rovBy-W9d4GmyHB49PC-522" source="2rovBy-W9d4GmyHB49PC-579" target="2rovBy-W9d4GmyHB49PC-582">
          <mxGeometry relative="1" as="geometry" />
        </mxCell>
        <mxCell id="2rovBy-W9d4GmyHB49PC-579" value="Внесення інформації про основні активи в інвентаризаційний опис" style="rounded=0;whiteSpace=wrap;html=1;fillColor=none;" vertex="1" parent="2rovBy-W9d4GmyHB49PC-522">
          <mxGeometry x="110" y="200" width="125" height="70" as="geometry" />
        </mxCell>
        <mxCell id="2rovBy-W9d4GmyHB49PC-580" style="edgeStyle=orthogonalEdgeStyle;rounded=1;orthogonalLoop=1;jettySize=auto;html=1;exitX=1;exitY=0.5;exitDx=0;exitDy=0;entryX=0;entryY=0.5;entryDx=0;entryDy=0;curved=0;" edge="1" parent="2rovBy-W9d4GmyHB49PC-522" source="2rovBy-W9d4GmyHB49PC-582" target="2rovBy-W9d4GmyHB49PC-585">
          <mxGeometry relative="1" as="geometry" />
        </mxCell>
        <mxCell id="2rovBy-W9d4GmyHB49PC-581" style="edgeStyle=orthogonalEdgeStyle;rounded=1;orthogonalLoop=1;jettySize=auto;html=1;entryX=0.636;entryY=0.022;entryDx=0;entryDy=0;entryPerimeter=0;curved=0;" edge="1" parent="2rovBy-W9d4GmyHB49PC-522" target="2rovBy-W9d4GmyHB49PC-585">
          <mxGeometry relative="1" as="geometry">
            <mxPoint x="320" y="160" as="sourcePoint" />
          </mxGeometry>
        </mxCell>
        <mxCell id="2rovBy-W9d4GmyHB49PC-582" value="Внесення інформації про активи, що на ремонті" style="rounded=0;whiteSpace=wrap;html=1;fillColor=none;" vertex="1" parent="2rovBy-W9d4GmyHB49PC-522">
          <mxGeometry x="270" y="236.78999999999996" width="120" height="60" as="geometry" />
        </mxCell>
        <mxCell id="2rovBy-W9d4GmyHB49PC-583" value="" style="edgeStyle=entityRelationEdgeStyle;startArrow=none;endArrow=none;segment=10;curved=1;sourcePerimeterSpacing=0;targetPerimeterSpacing=0;rounded=0;strokeColor=none;" edge="1" parent="2rovBy-W9d4GmyHB49PC-522">
          <mxGeometry relative="1" as="geometry">
            <mxPoint x="240" y="234.78999999999996" as="sourcePoint" />
            <mxPoint x="270.33333333333303" y="214.77777777777783" as="targetPoint" />
          </mxGeometry>
        </mxCell>
        <mxCell id="2rovBy-W9d4GmyHB49PC-584" value="&lt;div&gt;Уточнена&amp;nbsp;&lt;/div&gt;&lt;div&gt;документація&lt;/div&gt;" style="text;html=1;align=center;verticalAlign=middle;resizable=0;points=[];autosize=1;strokeColor=none;fillColor=none;" vertex="1" parent="2rovBy-W9d4GmyHB49PC-522">
          <mxGeometry y="195.03" width="100" height="40" as="geometry" />
        </mxCell>
        <mxCell id="2rovBy-W9d4GmyHB49PC-585" value="Внесення інформації про активи, що непридатні до експлуатації" style="rounded=0;whiteSpace=wrap;html=1;fillColor=#FFF9E6;" vertex="1" parent="2rovBy-W9d4GmyHB49PC-522">
          <mxGeometry x="430" y="296.79" width="170" height="60" as="geometry" />
        </mxCell>
        <mxCell id="2rovBy-W9d4GmyHB49PC-586" value="" style="endArrow=classic;html=1;rounded=1;entryX=0.5;entryY=1;entryDx=0;entryDy=0;edgeStyle=elbowEdgeStyle;curved=0;" edge="1" parent="2rovBy-W9d4GmyHB49PC-522" target="2rovBy-W9d4GmyHB49PC-579">
          <mxGeometry width="50" height="50" relative="1" as="geometry">
            <mxPoint x="300" y="370" as="sourcePoint" />
            <mxPoint x="190" y="320" as="targetPoint" />
            <Array as="points">
              <mxPoint x="173" y="330" />
            </Array>
          </mxGeometry>
        </mxCell>
        <mxCell id="2rovBy-W9d4GmyHB49PC-587" value="Інструкції" style="text;html=1;align=center;verticalAlign=middle;resizable=0;points=[];autosize=1;strokeColor=none;fillColor=none;" vertex="1" parent="2rovBy-W9d4GmyHB49PC-522">
          <mxGeometry x="265" y="99.99999999999999" width="70" height="30" as="geometry" />
        </mxCell>
        <mxCell id="2rovBy-W9d4GmyHB49PC-588" value="&lt;div&gt;Інвентаризаційний&lt;/div&gt;&lt;div&gt;опис&lt;/div&gt;" style="text;html=1;align=center;verticalAlign=middle;resizable=0;points=[];autosize=1;strokeColor=none;fillColor=none;" vertex="1" parent="2rovBy-W9d4GmyHB49PC-522">
          <mxGeometry x="593" y="290" width="120" height="40" as="geometry" />
        </mxCell>
        <mxCell id="2rovBy-W9d4GmyHB49PC-589" value="&lt;div&gt;Опис&lt;/div&gt;&lt;div&gt;активів&lt;br&gt;&lt;/div&gt;" style="text;html=1;align=center;verticalAlign=middle;resizable=0;points=[];autosize=1;strokeColor=none;fillColor=none;" vertex="1" parent="2rovBy-W9d4GmyHB49PC-522">
          <mxGeometry x="235" y="195.03" width="60" height="40" as="geometry" />
        </mxCell>
        <mxCell id="2rovBy-W9d4GmyHB49PC-590" value="&lt;div&gt;Опис&lt;/div&gt;&lt;div&gt;активів&lt;br&gt;&lt;/div&gt;" style="text;html=1;align=center;verticalAlign=middle;resizable=0;points=[];autosize=1;strokeColor=none;fillColor=none;" vertex="1" parent="2rovBy-W9d4GmyHB49PC-522">
          <mxGeometry x="410" y="236.78999999999996" width="60" height="40" as="geometry" />
        </mxCell>
        <mxCell id="2rovBy-W9d4GmyHB49PC-591" value="" style="rounded=0;whiteSpace=wrap;html=1;fillColor=#333333;" vertex="1" parent="2rovBy-W9d4GmyHB49PC-522">
          <mxGeometry x="644" y="40" width="18" height="10" as="geometry" />
        </mxCell>
        <mxCell id="2rovBy-W9d4GmyHB49PC-592" value="" style="rounded=0;whiteSpace=wrap;html=1;fillColor=#FFF9E6;" vertex="1" parent="2rovBy-W9d4GmyHB49PC-522">
          <mxGeometry x="620" y="27" width="18" height="10" as="geometry" />
        </mxCell>
        <mxCell id="2rovBy-W9d4GmyHB49PC-593" value="" style="rounded=0;whiteSpace=wrap;html=1;fillColor=#FFF9E6;" vertex="1" parent="2rovBy-W9d4GmyHB49PC-522">
          <mxGeometry x="670" y="50" width="20" height="10" as="geometry" />
        </mxCell>
        <mxCell id="2rovBy-W9d4GmyHB49PC-594" value="" style="endArrow=classic;html=1;rounded=1;entryX=0.5;entryY=1;entryDx=0;entryDy=0;edgeStyle=elbowEdgeStyle;elbow=vertical;curved=0;" edge="1" parent="1" target="2rovBy-W9d4GmyHB49PC-585">
          <mxGeometry width="50" height="50" relative="1" as="geometry">
            <mxPoint x="2140" y="710" as="sourcePoint" />
            <mxPoint x="2210" y="650" as="targetPoint" />
            <Array as="points">
              <mxPoint x="2250" y="710" />
            </Array>
          </mxGeometry>
        </mxCell>
        <mxCell id="2rovBy-W9d4GmyHB49PC-595" value="" style="endArrow=classic;html=1;rounded=1;edgeStyle=orthogonalEdgeStyle;entryX=0.75;entryY=1;entryDx=0;entryDy=0;curved=0;" edge="1" parent="1" target="2rovBy-W9d4GmyHB49PC-585">
          <mxGeometry width="50" height="50" relative="1" as="geometry">
            <mxPoint x="2200" y="750" as="sourcePoint" />
            <mxPoint x="2220" y="590" as="targetPoint" />
            <Array as="points">
              <mxPoint x="2398" y="751" />
            </Array>
          </mxGeometry>
        </mxCell>
        <mxCell id="2rovBy-W9d4GmyHB49PC-596" value="" style="endArrow=classic;html=1;rounded=1;edgeStyle=orthogonalEdgeStyle;entryX=0.75;entryY=1;entryDx=0;entryDy=0;curved=0;" edge="1" parent="1" target="2rovBy-W9d4GmyHB49PC-579">
          <mxGeometry width="50" height="50" relative="1" as="geometry">
            <mxPoint x="2200" y="670" as="sourcePoint" />
            <mxPoint x="2220" y="590" as="targetPoint" />
            <Array as="points">
              <mxPoint x="2044" y="670" />
            </Array>
          </mxGeometry>
        </mxCell>
        <mxCell id="2rovBy-W9d4GmyHB49PC-597" value="" style="endArrow=classic;html=1;rounded=1;edgeStyle=orthogonalEdgeStyle;entryX=0.856;entryY=0.005;entryDx=0;entryDy=0;entryPerimeter=0;curved=0;" edge="1" parent="1" target="2rovBy-W9d4GmyHB49PC-579">
          <mxGeometry width="50" height="50" relative="1" as="geometry">
            <mxPoint x="2274" y="504" as="sourcePoint" />
            <mxPoint x="2056.5" y="524.3500000000001" as="targetPoint" />
            <Array as="points">
              <mxPoint x="2057" y="505" />
            </Array>
          </mxGeometry>
        </mxCell>
        <mxCell id="2rovBy-W9d4GmyHB49PC-598" value="" style="endArrow=classic;html=1;rounded=1;edgeStyle=orthogonalEdgeStyle;curved=0;" edge="1" parent="1">
          <mxGeometry width="50" height="50" relative="1" as="geometry">
            <mxPoint x="2274" y="520" as="sourcePoint" />
            <mxPoint x="2212" y="564" as="targetPoint" />
            <Array as="points">
              <mxPoint x="2213" y="530" />
              <mxPoint x="2213" y="564" />
            </Array>
          </mxGeometry>
        </mxCell>
        <mxCell id="2rovBy-W9d4GmyHB49PC-599" value="" style="endArrow=classic;html=1;rounded=1;edgeStyle=orthogonalEdgeStyle;entryX=0.25;entryY=0;entryDx=0;entryDy=0;curved=0;" edge="1" parent="1" target="2rovBy-W9d4GmyHB49PC-582">
          <mxGeometry width="50" height="50" relative="1" as="geometry">
            <mxPoint x="2000" y="490" as="sourcePoint" />
            <mxPoint x="2140" y="560" as="targetPoint" />
            <Array as="points">
              <mxPoint x="2140" y="490" />
            </Array>
          </mxGeometry>
        </mxCell>
        <mxCell id="2rovBy-W9d4GmyHB49PC-600" value="" style="endArrow=classic;html=1;rounded=1;edgeStyle=orthogonalEdgeStyle;curved=0;" edge="1" parent="1">
          <mxGeometry width="50" height="50" relative="1" as="geometry">
            <mxPoint x="2160" y="480" as="sourcePoint" />
            <mxPoint x="2030" y="530" as="targetPoint" />
            <Array as="points">
              <mxPoint x="2030" y="481" />
              <mxPoint x="2030" y="530" />
            </Array>
          </mxGeometry>
        </mxCell>
        <mxCell id="2rovBy-W9d4GmyHB49PC-601" value="" style="endArrow=classic;html=1;rounded=1;edgeStyle=orthogonalEdgeStyle;curved=0;" edge="1" parent="1">
          <mxGeometry width="50" height="50" relative="1" as="geometry">
            <mxPoint x="2000" y="470" as="sourcePoint" />
            <mxPoint x="2410" y="627" as="targetPoint" />
            <Array as="points">
              <mxPoint x="2410" y="470" />
              <mxPoint x="2410" y="627" />
            </Array>
          </mxGeometry>
        </mxCell>
      </root>
    </mxGraphModel>
  </diagram>
</mxfile>
